<svg id="Layer_1" enable-background="new 0 0 468.028 468.028" height="512" viewBox="0 0 468.028 468.028" width="512" xmlns="http://www.w3.org/2000/svg" fill="#9f8353"><g><g><g><g><path d="m447.776 440.194c-1-3.732-4.832-5.952-8.572-4.951l-28.705 7.687-38.516-143.665c35.157-12.961 57.415-53.33 46.322-89.938l-9.953-33.25c-1.108-3.704-5.009-5.806-8.714-4.699-3.703 1.109-5.807 5.01-4.698 8.713l9.924 33.151c.64 2.403 1.113 4.823 1.458 7.247l-1.631.758c-8.783 1.941-17.625 3.061-26.432 3.405l-13.649-24.51c-4.584-8.233-15.406-11.192-23.564-6.335l-23.61 14.066c-1.894 1.128-3.501 2.593-4.79 4.291-15.216-6.711-29.404-16.018-41.89-27.751l-6.46-24.095c19.801 7.043 43.033 4.021 62.844-1.284 21.54-5.768 71.021-24.867 62.848-55.353-5.494-20.489-40.798-27.595-82.114-16.528-22.588 6.049-69.724 24.404-62.845 55.359l28.383 105.869c9.886 36.877 47.409 60.924 85.05 54.503l38.516 143.667-28.7 7.686c-8.831 2.365-5.007 15.837 3.621 13.523l70.928-18.995c3.732-.998 5.949-4.836 4.949-8.571zm-189.229-301.311c-5.286-19.716 40.437-34.854 52.945-38.204 12.443-3.333 23.655-4.711 33.133-4.711 18.344 0 30.183 5.168 31.837 11.341 5.287 19.717-40.436 34.854-52.945 38.204-36.528 9.781-62.461 2.731-64.97-6.63zm89.662 66.952c1.705-.801 3.094-.428 4.168 1.119l9.714 17.442c-11.634-.815-23.097-2.991-34.163-6.477zm-61.277 38.923-9.929-37.033c37.109 26.986 84.761 37.013 129.615 27.416-2.539 24.975-20.782 46.262-44.988 52.745-32.48 8.697-65.991-10.649-74.698-43.128z"/><g><circle cx="392.63" cy="150.661" r="8.5"/></g></g><g><path d="m25.205 448.767 70.928 18.995c8.628 2.313 12.452-11.159 3.621-13.523l-28.7-7.686 38.516-143.667c37.641 6.421 75.164-17.626 85.05-54.503l28.383-105.869c6.879-30.955-40.256-49.309-62.845-55.359-41.316-11.067-76.62-3.961-82.114 16.528-8.173 30.486 41.308 49.585 62.848 55.353 19.811 5.306 43.043 8.327 62.844 1.284l-6.46 24.095c-12.487 11.733-26.674 21.04-41.89 27.751-1.289-1.698-2.896-3.163-4.79-4.291l-23.61-14.066c-8.158-4.856-18.981-1.898-23.564 6.335l-13.649 24.51c-8.807-.344-17.649-1.464-26.432-3.405l-1.631-.758c.344-2.425.817-4.844 1.458-7.247l9.924-33.151c1.108-3.704-.995-7.604-4.698-8.713-3.705-1.107-7.605.995-8.714 4.699l-9.953 33.25c-11.093 36.608 11.165 76.977 46.322 89.938l-38.518 143.664-28.705-7.687c-3.74-1.001-7.572 1.218-8.572 4.951-1 3.734 1.217 7.572 4.951 8.572zm119.308-303.255c-12.509-3.35-58.232-18.487-52.945-38.204 1.654-6.172 13.493-11.341 31.837-11.341 9.478 0 20.689 1.379 33.133 4.711 12.508 3.35 58.232 18.488 52.945 38.204-2.509 9.362-28.443 16.412-64.97 6.63zm-4.411 72.407c-11.067 3.486-22.53 5.662-34.163 6.477l9.714-17.442c1.074-1.547 2.463-1.92 4.168-1.119zm-33.704 69.966c-24.206-6.482-42.448-27.77-44.988-52.745 44.854 9.597 92.506-.43 129.615-27.416l-9.929 37.033c-8.705 32.48-42.216 51.826-74.698 43.128z"/><g><circle cx="75.4" cy="150.661" r="8.5"/></g></g></g><g><g><path d="m233.639 85c-11.032 0-20.008-8.972-20.008-20s8.976-20 20.008-20 20.007 8.972 20.007 20-8.975 20-20.007 20zm0-26c-3.313 0-6.008 2.691-6.008 6s2.695 6 6.008 6 6.007-2.691 6.007-6-2.695-6-6.007-6z"/></g><g><path d="m163.6 50c-13.79 0-25.01-11.215-25.01-25s11.22-25 25.01-25 25.01 11.215 25.01 25-11.22 25-25.01 25zm0-36c-6.071 0-11.01 4.935-11.01 11s4.938 11 11.01 11 11.01-4.935 11.01-11-4.939-11-11.01-11z"/></g><g><path d="m293.672 50c-13.791 0-25.011-11.215-25.011-25s11.22-25 25.011-25c13.79 0 25.01 11.215 25.01 25s-11.22 25-25.01 25zm0-36c-6.071 0-11.011 4.935-11.011 11s4.939 11 11.011 11 11.01-4.935 11.01-11-4.939-11-11.01-11z"/></g></g></g><g><g><path d="m36.697 22.944c-3.866 0-7-3.134-7-7v-8.944c0-3.866 3.134-7 7-7s7 3.134 7 7v8.944c0 3.866-3.133 7-7 7z"/></g><g><path d="m36.698 73.208c-3.866 0-7-3.134-7-7v-8.944c0-3.866 3.134-7 7-7s7 3.134 7 7v8.944c0 3.866-3.133 7-7 7z"/></g><g><path d="m66.382 43.604h-8.969c-3.866 0-7-3.134-7-7s3.134-7 7-7h8.969c3.866 0 7 3.134 7 7s-3.134 7-7 7z"/></g><g><path d="m15.983 43.604h-8.969c-3.866 0-7-3.134-7-7s3.134-7 7-7h8.969c3.866 0 7 3.134 7 7s-3.134 7-7 7z"/></g></g><g><g><path d="m431.329 22.944c-3.866 0-7-3.134-7-7v-8.944c0-3.866 3.134-7 7-7s7 3.134 7 7v8.944c0 3.866-3.134 7-7 7z"/></g><g><path d="m431.33 73.208c-3.866 0-7-3.134-7-7v-8.944c0-3.866 3.134-7 7-7s7 3.134 7 7v8.944c0 3.866-3.134 7-7 7z"/></g><g><path d="m461.014 43.604h-8.969c-3.866 0-7-3.134-7-7s3.134-7 7-7h8.969c3.866 0 7 3.134 7 7s-3.134 7-7 7z"/></g><g><path d="m410.614 43.604h-8.969c-3.866 0-7-3.134-7-7s3.134-7 7-7h8.969c3.866 0 7 3.134 7 7s-3.133 7-7 7z"/></g></g><g><g><path d="m233.639 373.23c-3.866 0-7-3.134-7-7v-8.944c0-3.866 3.134-7 7-7s7 3.134 7 7v8.944c0 3.867-3.134 7-7 7z"/></g><g><path d="m233.639 423.494c-3.866 0-7-3.134-7-7v-8.944c0-3.866 3.134-7 7-7s7 3.134 7 7v8.944c0 3.866-3.134 7-7 7z"/></g><g><path d="m263.322 393.89h-8.968c-3.866 0-7-3.134-7-7s3.134-7 7-7h8.968c3.866 0 7 3.134 7 7s-3.133 7-7 7z"/></g><g><path d="m212.923 393.89h-8.969c-3.866 0-7-3.134-7-7s3.134-7 7-7h8.969c3.866 0 7 3.134 7 7s-3.134 7-7 7z"/></g></g></g></svg>