<svg id="Balloons" viewBox="0 0 64 64" xmlns="http://www.w3.org/2000/svg"><path d="m15.59680176 32.18292236c.27331543-.12573242.54656982-.25256348.81433105-.40753174.47802734-.27636719.64111328-.88769531.36474609-1.36621094s-.88916016-.64257812-1.36669922-.36425781c-1.09521484.63378906-2.2421875.95507812-3.40917969.95507812-5.23388672 0-10-6.75390625-10-14.16992188 0-5.41992188 4.48583984-9.83007812 10-9.83007812 4.09570312 0 7.73242188 2.40625 9.26513672 6.13085938.21044922.50976562.79638672.75195312 1.30517578.54394531.51074219-.20996094.75439453-.79492188.54443359-1.30566406-1.84277344-4.4765625-6.20556641-7.36914062-11.11474609-7.36914062-6.61669921 0-11.99999999 5.30664062-11.99999999 11.83007812 0 7.54333496 3.96514893 13.2612915 8.43231201 15.32336426l-.51971436.51940918c-.58837891.58984375-.91259766 1.37304688-.91259766 2.20703125 0 1.72070312 1.39990234 3.12011719 3.12011719 3.12011719h.59936523c-.30029297 1.69360352-.43560791 4.80407715 1.38598633 8.44726562 1.71484375 3.4296875-1.90136719 8.94335938-1.93798828 8.99902344-.30517578.45996094-.18066406 1.08007812.27880859 1.38574219.17041016.11328125.36279297.16796875.55322266.16796875.32324219 0 .64013672-.15625.83251953-.4453125.17626953-.26464844 4.29638672-6.53417969 2.0625-11.00195312-1.74084473-3.48168945-1.41705322-6.33001709-1.14080811-7.55273438h1.12615967c1.72021484 0 3.12011719-1.39941406 3.12011719-3.12011719 0-.83398438-.32421875-1.6171875-.91308594-2.20703125l-.4901123-.4899292zm-1.71691895 3.81707764h-3.75976562c-.61767578 0-1.12011719-.50292969-1.12011719-1.12011719 0-.29980469.11621094-.58203125.32714844-.79296875l1.24066162-1.24029541c.47918701.09051514.95800781.15338135 1.43218994.15338135.48651123 0 .96710205-.05737305 1.44433594-.14111328l1.22802734 1.22802734c.21142578.2109375.32763672.49316406.32763672.79296875 0 .6171875-.50244141 1.12011719-1.12011719 1.12011719z"/><path d="m32.56756592 40.15368652c4.46716309-2.06164551 8.43243408-7.77880859 8.43243408-15.32067871 0-6.52441406-5.38330078-11.83300781-12-11.83300781s-12 5.30859375-12 11.83300781c0 7.54174805 3.96502686 13.25878906 8.43218994 15.32055664l-.51959229.51928711c-.58837891.58984375-.91259766 1.37304688-.91259766 2.20703125 0 1.72070312 1.39990234 3.12011719 3.12011719 3.12011719h.17724609c-.80224609 1.76599121-1.64404297 4.82617188-.22607422 8.37109375 1.796875 4.4921875.10546875 8.03613281.03417969 8.18164062-.24707031.49414062-.046875 1.09472656.44726562 1.34179688.14355469.07128906.29638672.10546875.44628906.10546875.3671875 0 .72021484-.20214844.89550781-.55273438.08984375-.1796875 2.17626953-4.46289062.03417969-9.81835938-1.43621826-3.59020996-.01428223-6.57702637.61230469-7.62890625h1.33886719c1.72021484 0 3.12011719-1.39941406 3.12011719-3.12011719 0-.83398438-.32421875-1.6171875-.91308594-2.20703125l-.51934814-.51916504zm-13.56756592-15.32067871c0-5.421875 4.48583984-9.83300781 10-9.83300781s10 4.41113281 10 9.83300781c0 7.4140625-4.76660156 14.16699219-10 14.16699219s-10-6.75292969-10-14.16699219zm11.87988281 19.16699219h-3.75976562c-.61767578 0-1.12011719-.50292969-1.12011719-1.12011719 0-.29980469.11621094-.58203125.32714844-.79296875l1.24066162-1.24029541c.47918701.09051514.95800781.15338135 1.43218994.15338135s.95294189-.06280518 1.43212891-.15332031l1.24023438 1.24023438c.21142578.2109375.32763672.49316406.32763672.79296875 0 .6171875-.50244141 1.12011719-1.12011719 1.12011719z"/><circle cx="22" cy="4" r="1"/><circle cx="5" cy="59" r="1"/><circle cx="37" cy="60" r="1"/><path d="m20.60009766 53.70019531c-.27490234-.20605469-.43994141-.50878906-.46435547-.85253906-.02441406-.34277344.09619141-.66503906.33886719-.90820312l.23242188-.23242188c.390625-.390625.390625-1.0234375 0-1.4140625s-1.0234375-.390625-1.4140625 0l-.23242188.23242188c-.64990234.64941406-.98486328 1.54785156-.91992188 2.46386719.06494141.91699219.52392578 1.75878906 1.25927734 2.31054688.27490234.20605469.43994141.50878906.46435547.85253906.02441406.34277344-.09619141.66503906-.33886719.90820312l-.23242188.23242188c-.390625.390625-.390625 1.0234375 0 1.4140625.1953125.1953125.45117188.29296875.70703125.29296875s.51171875-.09765625.70703125-.29296875l.23242188-.23242188c.64990234-.64941406.98486328-1.54785156.91992188-2.46386719-.06494141-.91699219-.52392578-1.75878906-1.25927734-2.31054688z"/><path d="m4.70703125 45.29296875c-.390625-.390625-1.0234375-.390625-1.4140625 0l-3 3c-.390625.390625-.390625 1.0234375 0 1.4140625l3 3c.1953125.1953125.45117188.29296875.70703125.29296875s.51171875-.09765625.70703125-.29296875l3-3c.390625-.390625.390625-1.0234375 0-1.4140625zm-.70703125 5.29296875-1.5859375-1.5859375 1.5859375-1.5859375 1.5859375 1.5859375z"/><path d="m58.70703125 51.29296875c-.390625-.390625-1.0234375-.390625-1.4140625 0l-3 3c-.390625.390625-.390625 1.0234375 0 1.4140625l3 3c.1953125.1953125.45117188.29296875.70703125.29296875s.51171875-.09765625.70703125-.29296875l3-3c.390625-.390625.390625-1.0234375 0-1.4140625zm-.70703125 5.29296875-1.5859375-1.5859375 1.5859375-1.5859375 1.5859375 1.5859375z"/><path d="m28.44482422 6.83203125.36914062.24609375c1.51269531 1.00878906 2.66259766 2.51367188 3.23730469 4.23828125.13622647.40820312.51806641.68359375.94873047.68359375s.81249596-.27539062.94873047-.68359375c.57470703-1.72460938 1.72460938-3.22949219 3.23779297-4.23828125l.36865234-.24609375c.27783203-.18554688.44482422-.49804688.44482422-.83203125s-.16699219-.64648438-.44482422-.83203125l-.36914062-.24609375c-1.51269531-1.00878906-2.66259766-2.51367188-3.23730469-4.23828125-.13623451-.40820312-.51806641-.68359375-.94873047-.68359375s-.812504.27539062-.94873047.68359375c-.57470703 1.72460938-1.72460938 3.22949219-3.23779297 4.23828125l-.36865234.24609375c-.27783203.18554688-.44482422.49804688-.44482422.83203125s.16699219.64648438.44482422.83203125zm4.55517578-3.46582031c.60449219.99902344 1.37841797 1.89257812 2.28417969 2.63378906-.90576172.74121094-1.6796875 1.63476562-2.28417969 2.63378906-.60449219-.99902344-1.37841797-1.89257812-2.28417969-2.63378906.90576172-.74121094 1.6796875-1.63476562 2.28417969-2.63378906z"/><path d="m53.87988281 33c1.72021484 0 3.12011719-1.39941406 3.12011719-3.12011719 0-.83398438-.32421875-1.6171875-.91308594-2.20703125l-.51934814-.51916504c4.46716309-2.06164551 8.43243408-7.77880859 8.43243408-15.32067871 0-6.52441406-5.38330078-11.83300781-12-11.83300781s-12 5.30859375-12 11.83300781c0 7.54174805 3.96502686 13.25878906 8.43218994 15.32055664l-.51959229.51928711c-.58837891.58984375-.91259766 1.37304688-.91259766 2.20703125 0 1.72070312 1.39990234 3.12011719 3.12011719 3.12011719h.17724609c-.80224609 1.76599121-1.64404297 4.82617188-.22607422 8.37109375 1.796875 4.4921875.10546875 8.03613281.03417969 8.18164062-.24707031.49414062-.046875 1.09472656.44726562 1.34179688.14355469.07128906.29638672.10546875.44628906.10546875.3671875 0 .72021484-.20214844.89550781-.55273438.08984375-.1796875 2.17626953-4.46289062.03417969-9.81835938-1.43621826-3.59020996-.01428223-6.57702637.61230469-7.62890625h1.33886719zm-11.87988281-21.16699219c0-5.421875 4.48583984-9.83300781 10-9.83300781s10 4.41113281 10 9.83300781c0 7.4140625-4.76660156 14.16699219-10 14.16699219s-10-6.75292969-10-14.16699219zm7 18.046875c0-.29980469.11621094-.58203125.32714844-.79296875l1.24066162-1.24029541c.47918701.09051514.95800781.15338135 1.43218994.15338135s.95294189-.06280518 1.43212891-.15332031l1.24023438 1.24023438c.21142578.2109375.32763672.49316406.32763672.79296875 0 .6171875-.50244141 1.12011719-1.12011719 1.12011719h-3.75976562c-.61767578 0-1.12011719-.50292969-1.12011719-1.12011719z"/><path d="m42.39013672 50.57910156c-.31689453-.13378906-.54980469-.38867188-.65576172-.71582031s-.06689453-.66894531.11083984-.96386719l.16943359-.28125c.28515625-.47265625.1328125-1.08691406-.34033203-1.37207031-.47412109-.28613281-1.08837891-.1328125-1.37255859.34082031l-.16943359.28027344c-.47460938.78710938-.58398438 1.73925781-.30029297 2.61328125.28320312.875.93164062 1.58203125 1.77783203 1.94042969.31689453.13378906.54980469.38867188.65576172.71582031s.06689453.66894531-.11083984.96386719l-.16943359.28125c-.28515625.47265625-.1328125 1.08691406.34033203 1.37207031.16162109.09765625.33935547.14355469.51513672.14355469.33886719 0 .66992188-.17285156.85742188-.484375l.16943359-.28027344c.47460938-.78710938.58398438-1.73925781.30029297-2.61328125-.28320312-.875-.93164062-1.58203125-1.77783203-1.94042969z"/><path d="m57.4453125 39.16796875c-.45947266.30664062-.58349609.92675781-.27734375 1.38671875l2 3c.19287109.2890625.50976562.4453125.83300781.4453125.19042969 0 .38330078-.0546875.55371094-.16796875.45947266-.30664062.58349609-.92675781.27734375-1.38671875l-2-3c-.30664062-.45996094-.92724609-.58398438-1.38671875-.27734375z"/><path d="m40.55273438 39.89453125c.14355469.07128906.29638672.10546875.44628906.10546875.3671875 0 .72021484-.20214844.89550781-.55273438l1-2c.24707031-.49414062.046875-1.09472656-.44726562-1.34179688-.49609375-.24707031-1.09521484-.046875-1.34179688.44726562l-1 2c-.24707031.49414062-.046875 1.09472656.44726562 1.34179688z"/></svg>