<svg height="512" viewBox="0 0 48 48" width="512" xmlns="http://www.w3.org/2000/svg"><g id="_10-clink" data-name="10-clink"><path d="m27.48535 24.126-18-10a.9998.9998 0 0 0 -1.47754.998l1.96027 15.6824-7.08466 13.15741-1.36877-.82123a1 1 0 0 0 -1.0293 1.71484l5 3a1 1 0 1 0 1.0293-1.71484l-1.91382-1.14832 7.102-13.18945 15.64874-5.86829a1.00018 1.00018 0 0 0 .13379-1.81054zm-15.65035 5.49265-.87787-7.02191 6.59564 3.29779a1.06883 1.06883 0 0 0 1.3418-.44726 1.011 1.011 0 0 0 -.44726-1.3418l-7.78837-3.89417-.42261-3.38025 14.38672 7.99219z"/><path d="m47.85742 43.48535a.99931.99931 0 0 0 -1.37207-.34277l-1.36877.82123-7.08466-13.15741 1.96027-15.6824a.99991.99991 0 0 0 -1.50684-.98144l-10 6a1 1 0 0 0 1.0293 1.71484l8.23828-4.94287-.88562 7.08547h-5.86731a1 1 0 0 0 0 2h5.61731l-.45231 3.61865-6.81348-2.55517a1.00033 1.00033 0 0 0 -.70312 1.873l7.64874 2.86829 7.102 13.18945-1.91382 1.14832a1 1 0 0 0 1.0293 1.71484l5-3a1 1 0 0 0 .3428-1.37203z"/><path d="m24 6a.99974.99974 0 0 0 1-1v-4a1 1 0 0 0 -2 0v4a.99974.99974 0 0 0 1 1z"/><path d="m33 11a.99974.99974 0 0 0 -1-1h-4a1 1 0 0 0 0 2h4a.99974.99974 0 0 0 1-1z"/><path d="m16 12h4a1 1 0 0 0 0-2h-4a1 1 0 0 0 0 2z"/><path d="m27.44727 7.89453 4-2a1.00012 1.00012 0 0 0 -.89454-1.78906l-4 2a1 1 0 0 0 -.44726 1.3418 1.05608 1.05608 0 0 0 1.3418.44726z"/><path d="m16.55273 5.89453 4 2a1.10211 1.10211 0 0 0 1.3418-.44726.98936.98936 0 0 0 -.44726-1.3418l-4-2a1.00012 1.00012 0 0 0 -.89454 1.78906z"/><path d="m22 35h-1v-1a1 1 0 0 0 -2 0v1h-1a1 1 0 0 0 0 2h1v1a1 1 0 0 0 2 0v-1h1a1 1 0 0 0 0-2z"/><path d="m4 9h1v1a1 1 0 0 0 2 0v-1h1a1 1 0 0 0 0-2h-1v-1a1 1 0 0 0 -2 0v1h-1a1 1 0 0 0 0 2z"/><path d="m34 41h-1v-1a1 1 0 0 0 -2 0v1h-1a1 1 0 0 0 0 2h1v1a1 1 0 0 0 2 0v-1h1a1 1 0 0 0 0-2z"/></g></svg>