<?xml version="1.0" encoding="iso-8859-1"?>
<!-- Generator: Adobe Illustrator 19.0.0, SVG Export Plug-In . SVG Version: 6.00 Build 0)  -->
<svg version="1.1" id="Capa_1" xmlns="http://www.w3.org/2000/svg" xmlns:xlink="http://www.w3.org/1999/xlink" x="0px" y="0px"
	 viewBox="0 0 450.44 450.44" style="enable-background:new 0 0 450.44 450.44;" xml:space="preserve" fill="#ffffff">
<g>
	<g>
		<path d="M380.68,268.68l69.76-28.512l-28.536-69.68L250.856,98.696c-1.144-8.336-3.376-16.664-6.688-24.904
			c-2.376-5.632-5.08-10.88-8.016-15.592C214.056,22.672,173.2,3.968,132.072,10.504c-7.784,1.112-15.672,3.272-23.504,6.432
			c-20.744,8.48-37.2,22.976-48.368,40.584C23.568,73.4,0,109.072,0,149.224c0,29.384,12.816,55.768,33.072,74.08
			C39.976,274,83.448,313.224,136,313.224c8.688,0,17.24-1.072,25.496-3.184L200,348.536l8-8l12.688,12.688l-8,8L248,396.536l8-8
			l12.688,12.688l-8,8l32,32H368v-75.312L236.816,234.728c2.088-8.144,3.136-16.576,3.168-25.144l19.928,8.368l4.328-10.408
			l16.568,6.928l-4.4,10.472l46.024,19.312l4.408-10.472l16.512,6.976l-4.416,10.416L380.68,268.68z M32.544,199.064
			C22.2,185.096,16,167.896,16,149.224c0-26.528,12.256-50.728,32.456-66.352c-6.552,21.32-6.248,44.792,2.216,66.968
			C40.432,164.552,34.248,181.32,32.544,199.064z M352,372.536v52.688h-52.688l-16-16l8-8L256,365.912l-8,8l-12.688-12.688l8-8
			L208,317.912l-8,8L166.096,292l-4.608,1.432c-8.168,2.512-16.744,3.792-25.488,3.792c-38.704,0-73.584-25.152-85.336-59.944
			C64.768,244.888,80,249.224,96,249.224v-16c-16,0-34.672-6.408-48.944-17.6c-0.136-2.016-0.056-4.352-0.056-6.4
			c0-19.496,6.744-37.984,18.528-53.456c16.816-21.952,42.568-34.544,70.224-34.544c7.008,0,13.976,0.816,20.536,2.432
			c34.352,8.072,60.456,35.816,66.416,70.736c0.192,1.088,0.352,2.232,0.544,3.952c0.488,3.424,0.736,6.976,0.736,10.88
			c0,8.744-1.272,17.32-3.792,25.488l-1.424,4.608L352,372.536z M318.288,212.816l-4.408,10.504l-16.52-6.936l4.4-10.488
			l-46.152-19.304l-4.312,10.392l-12.776-5.36c-7.04-41.208-37.832-74.008-78.368-83.52c-7.72-1.912-15.848-2.88-24.152-2.88
			c-3.816,0-7.584,0.248-11.32,0.648c-1.208,0.128-2.392,0.36-3.584,0.528c-2.512,0.36-5.016,0.76-7.48,1.296
			c-1.376,0.296-2.728,0.664-4.08,1.016c-2.256,0.584-4.488,1.232-6.688,1.968c-1.36,0.456-2.712,0.928-4.048,1.44
			c-2.184,0.832-4.32,1.752-6.44,2.728c-1.24,0.576-2.488,1.12-3.704,1.744c-2.304,1.176-4.536,2.48-6.744,3.824
			c-0.936,0.568-1.904,1.08-2.816,1.68c-3.08,2.016-6.072,4.184-8.944,6.536c-0.36,0.296-0.688,0.64-1.048,0.944
			c-2.184,1.84-4.336,3.728-6.384,5.76C51.8,93.368,73.392,48.6,114.6,31.752c6.584-2.656,13.224-4.48,19.856-5.432
			c34.832-5.536,69.416,10.264,88.12,40.344c2.504,4,4.808,8.496,6.8,13.216c3.312,8.248,5.368,16.688,6.096,25.064l0.416,4.824
			l173.728,72.904l19.952,48.736L380.76,251.36l-20.824-8.728l4.4-10.384L318.288,212.816z"/>
	</g>
</g>
<g>
	<g>
		<path d="M123.288,353.208c-9.6-9.592-24.624-10.512-35.28-2.808c-10.648-7.728-25.672-6.792-35.288,2.808
			c-8.832,8.84-8.832,23.224,0.008,32.064l35.28,35.28l35.28-35.272c4.28-4.28,6.648-9.976,6.648-16.04
			C129.936,363.184,127.568,357.488,123.288,353.208z M111.976,373.96l-23.968,23.968L64.04,373.96c-2.6-2.6-2.592-6.832,0-9.44
			c2.192-2.192,5.088-3.288,7.968-3.288c2.888,0,5.776,1.096,7.968,3.288l8.032,8.032l8.032-8.032c4.4-4.392,11.552-4.384,15.936,0
			c1.264,1.264,1.96,2.936,1.96,4.72S113.24,372.696,111.976,373.96z"/>
	</g>
</g>
<g>
	<g>
		<path d="M379.288,17.208c-9.592-9.592-24.616-10.52-35.28-2.808c-10.64-7.728-25.664-6.784-35.288,2.808
			c-8.832,8.84-8.832,23.224,0.008,32.064l35.28,35.28l35.28-35.272c4.28-4.28,6.648-9.976,6.648-16.04
			C385.936,27.184,383.568,21.488,379.288,17.208z M367.976,37.96l-23.968,23.968L320.04,37.96c-2.6-2.6-2.592-6.832,0-9.44
			c2.192-2.192,5.088-3.288,7.968-3.288c2.888,0,5.776,1.096,7.968,3.288l8.032,8.032l8.032-8.032c4.4-4.392,11.552-4.384,15.936,0
			c1.264,1.264,1.96,2.936,1.96,4.72C369.936,35.024,369.24,36.696,367.976,37.96z"/>
	</g>
</g>
<g>
	<g>
		<path d="M72,209.224h16c0-26.472,21.528-48,48-48v-16C100.712,145.224,72,173.936,72,209.224z"/>
	</g>
</g>
<g>
	<g>
		
			<rect x="264.022" y="280.657" transform="matrix(0.7071 -0.7071 0.7071 0.7071 -158.7743 291.1171)" width="16" height="113.119"/>
	</g>
</g>
<g>
	<g>
		<rect x="320.023" y="381.91" transform="matrix(0.7071 -0.7071 0.7071 0.7071 -181.974 347.1194)" width="16" height="22.624"/>
	</g>
</g>
<g>
	<g>
		<rect x="207.993" y="269.91" transform="matrix(0.7071 -0.7071 0.7071 0.7071 -135.5909 235.0979)" width="16" height="22.624"/>
	</g>
</g>
<g>
	<g>
		<rect x="314.238" y="123.68" transform="matrix(0.387 -0.9221 0.9221 0.387 31.3353 407.6157)" width="15.992" height="113.122"/>
	</g>
</g>
<g>
	<g>
		
			<rect x="387.259" y="199.558" transform="matrix(0.3867 -0.9222 0.9222 0.3867 47.9426 493.831)" width="15.992" height="22.624"/>
	</g>
</g>
<g>
	<g>
		
			<rect x="241.169" y="138.255" transform="matrix(0.3868 -0.9222 0.9222 0.3868 14.8652 321.4901)" width="15.993" height="22.625"/>
	</g>
</g>
<g>
</g>
<g>
</g>
<g>
</g>
<g>
</g>
<g>
</g>
<g>
</g>
<g>
</g>
<g>
</g>
<g>
</g>
<g>
</g>
<g>
</g>
<g>
</g>
<g>
</g>
<g>
</g>
<g>
</g>
</svg>
