<?xml version="1.0" encoding="UTF-8"?>
<svg xmlns="http://www.w3.org/2000/svg" version="1.1" viewBox="0 0 841.89 595.28">
  <!-- Generator: Adobe Illustrator 30.1.0, SVG Export Plug-In . SVG Version: 2.1.1 Build 136)  -->
  <defs>
    <style>
      .st0 {
        letter-spacing: -.02em;
      }

      .st1 {
        letter-spacing: .01em;
      }

      .st2 {
        letter-spacing: -.01em;
      }

      .st3 {
        letter-spacing: -.02em;
      }

      .st4 {
        fill: #ad182d;
      }

      .st5 {
        letter-spacing: 0em;
      }

      .st6 {
        letter-spacing: 0em;
      }

      .st7 {
        letter-spacing: 0em;
      }

      .st8 {
        fill: #fff;
      }

      .st9 {
        letter-spacing: -.03em;
      }

      .st10 {
        letter-spacing: -.03em;
      }

      .st11 {
        letter-spacing: .11em;
      }

      .st12 {
        letter-spacing: -.05em;
      }

      .st13 {
        fill: #a81815;
        font-size: 10px;
      }

      .st13, .st14, .st15 {
        display: none;
        font-family: Gotham-Light, Gotham;
        font-weight: 300;
      }

      .st16 {
        letter-spacing: 0em;
      }

      .st14 {
        fill: #5f5e5e;
      }

      .st14, .st15 {
        font-size: 20px;
      }

      .st17 {
        letter-spacing: 0em;
      }

      .st18 {
        letter-spacing: .09em;
      }

      .st19 {
        letter-spacing: -.26em;
      }

      .st20 {
        letter-spacing: -.02em;
      }

      .st21 {
        letter-spacing: 0em;
      }

      .st22 {
        letter-spacing: 0em;
      }

      .st23 {
        fill: #73111a;
      }

      .st24 {
        letter-spacing: -.04em;
      }

      .st25 {
        letter-spacing: -.01em;
      }

      .st15 {
        fill: #575756;
      }

      .st26 {
        letter-spacing: -.07em;
      }
    </style>
  </defs>
  <g id="Livello_1">
    <text class="st14" transform="translate(290.14 426.32)"><tspan x="0" y="0">Manuale d’uso del ma</tspan><tspan class="st10" x="212.58" y="0">r</tspan><tspan x="220.08" y="0">chio </tspan></text>
    <text class="st15" transform="translate(314.53 451.32)"><tspan class="st21" x="0" y="0">Came</tspan><tspan class="st24" x="56.24" y="0">r</tspan><tspan class="st21" x="63.54" y="0">a d</tspan><tspan class="st25" x="93.68" y="0">i</tspan><tspan class="st21" x="98.46" y="0"> </tspan><tspan class="st0" x="104.28" y="0">c</tspan><tspan class="st5" x="115.2" y="0">omm</tspan><tspan class="st25" x="165.34" y="0">e</tspan><tspan class="st9" x="176.82" y="0">r</tspan><tspan class="st5" x="184.14" y="0">c</tspan><tspan class="st22" x="195.38" y="0">i</tspan><tspan x="200.16" y="0">o</tspan></text>
    <text class="st15" transform="translate(280.8 476.32)"><tspan class="st21" x="0" y="0">di M</tspan><tspan class="st25" x="40.82" y="0">il</tspan><tspan class="st21" x="50.38" y="0">an</tspan><tspan class="st11" x="73.76" y="0">o</tspan><tspan class="st12" x="88.66" y="0"> </tspan><tspan class="st25" x="93.58" y="0">Mo</tspan><tspan class="st21" x="123.34" y="0">nz</tspan><tspan class="st1" x="146.32" y="0">a</tspan><tspan class="st19" x="158" y="0"> </tspan><tspan class="st17" x="158.72" y="0">B</tspan><tspan class="st25" x="172.98" y="0">r</tspan><tspan class="st17" x="180.78" y="0">ianz</tspan><tspan class="st18" x="219.86" y="0">a</tspan><tspan class="st12" x="233.14" y="0"> </tspan><tspan class="st20" x="238.06" y="0">L</tspan><tspan class="st25" x="249.94" y="0">o</tspan><tspan class="st5" x="262.54" y="0">d</tspan><tspan class="st16" x="275.56" y="0">i</tspan></text>
    <text class="st13" transform="translate(350.91 503.35)"><tspan class="st26" x="0" y="0">V</tspan><tspan class="st16" x="6.8" y="0">ersione 2</tspan><tspan class="st3" x="51.37" y="0">.</tspan><tspan x="53.48" y="0">0 - </tspan><tspan class="st2" x="70.66" y="0">F</tspan><tspan x="77.07" y="0">ebb</tspan><tspan class="st10" x="96.11" y="0">r</tspan><tspan class="st7" x="99.86" y="0">aio 2</tspan><tspan class="st6" x="123.39" y="0">0</tspan><tspan x="130.45" y="0">18</tspan></text>
    <g>
      <path class="st23" d="M456.73,347c-4.35-.9-8.3-2.88-11.56-5.65,4.33,7.62,11.08,13.53,19.12,16.53h16.58c-9.44-.47-17.93-4.55-24.13-10.88"/>
      <path class="st4" d="M480.29,295.55c.08,0,.24-.02.24-.02,1.21-.12,2.15-1.14,2.16-2.38v-6.59c0-.8-.65-1.45-1.45-1.45h-.4c-9.43.48-17.92,4.55-24.11,10.87-6.45,6.58-10.43,15.59-10.43,25.52s3.98,18.94,10.42,25.51c6.21,6.33,14.71,10.41,24.16,10.88,0,0,.37,0,.37,0,.79,0,1.43-.65,1.44-1.44v-6.59c0-1.23-.93-2.25-2.13-2.39-.03,0-.06,0-.07,0-.07,0-.13-.01-.2-.02-13.26-1.21-23.65-12.36-23.65-25.94s10.39-24.73,23.65-25.94"/>
      <path class="st4" d="M424.54,341.35c-.86-.73-1.67-1.51-2.43-2.34,0,0-.02-.02-.03-.03-.13-.15-.26-.29-.39-.44,0,0-.01-.01-.02-.02-.27-.31-.53-.62-.78-.94,0-.01-.02-.02-.02-.03-.12-.15-.24-.31-.36-.46-.01-.02-.03-.04-.04-.06-.11-.15-.22-.29-.33-.44-.02-.02-.03-.05-.05-.07-.1-.15-.21-.3-.31-.45,0-.01-.02-.03-.03-.04-.11-.16-.21-.32-.32-.48-.02-.03-.04-.06-.06-.09-.09-.15-.18-.29-.28-.44-.02-.03-.04-.07-.06-.1-.09-.15-.17-.29-.26-.44-.02-.04-.05-.09-.07-.13-.08-.14-.16-.28-.23-.42-.02-.03-.03-.06-.05-.09-.08-.15-.17-.31-.24-.46-.02-.04-.04-.08-.06-.12-.07-.15-.15-.29-.22-.44-.02-.05-.04-.09-.07-.14-.07-.14-.14-.29-.2-.43-.03-.07-.07-.15-.1-.23-.05-.12-.1-.24-.15-.36-.03-.07-.05-.13-.08-.2-.05-.13-.11-.26-.16-.39-.02-.04-.03-.09-.05-.13-.06-.15-.12-.31-.17-.46-.02-.06-.04-.11-.06-.17-.05-.14-.1-.29-.15-.43-.02-.05-.03-.11-.05-.16-.05-.15-.1-.3-.15-.45-.03-.09-.05-.18-.08-.27-.03-.11-.07-.23-.1-.35-.03-.1-.05-.19-.08-.29-.03-.11-.06-.22-.09-.33-.03-.11-.05-.22-.08-.33-.02-.1-.05-.2-.07-.3-.02-.11-.05-.21-.07-.31-.02-.11-.05-.21-.07-.32-.02-.09-.04-.18-.05-.27-.02-.12-.05-.25-.07-.37-.02-.12-.04-.25-.06-.37-.02-.09-.03-.18-.04-.27-.02-.13-.04-.26-.06-.39-.01-.09-.02-.17-.04-.26-.02-.12-.03-.23-.04-.35-.01-.1-.02-.2-.04-.3-.01-.12-.02-.25-.03-.37,0-.1-.02-.19-.02-.29,0-.08,0-.16-.01-.24-.04-.58-.06-1.17-.06-1.76s.02-1.18.06-1.76c0-.08,0-.16.01-.24,0-.1.02-.19.02-.29.01-.12.02-.25.03-.37.01-.1.02-.2.04-.3.01-.12.02-.24.04-.35.01-.09.02-.17.04-.26.02-.13.04-.26.06-.4.01-.1.03-.19.05-.29.02-.12.04-.24.06-.35.02-.13.05-.26.07-.39.02-.08.03-.16.05-.25.02-.11.05-.21.07-.32.02-.11.05-.21.07-.32.02-.1.05-.2.07-.3.03-.11.05-.22.08-.33.03-.11.06-.22.09-.33.03-.1.05-.19.08-.29.03-.11.06-.22.1-.32.03-.1.06-.2.09-.29.04-.14.09-.27.13-.41.02-.07.04-.13.07-.2.05-.14.1-.28.15-.42.02-.06.04-.12.06-.18.06-.15.11-.31.17-.46.02-.05.03-.09.05-.13.05-.14.11-.28.17-.42.02-.06.05-.12.07-.17.05-.12.11-.24.16-.37.03-.07.06-.14.09-.21.07-.15.14-.29.2-.43.02-.05.04-.09.07-.14.07-.15.14-.29.22-.44.02-.04.04-.08.06-.12.08-.16.16-.31.24-.47.02-.03.03-.06.05-.09.08-.14.15-.28.23-.42.02-.04.05-.09.07-.13.08-.15.17-.29.26-.43.02-.04.04-.07.06-.11.09-.15.18-.3.28-.44.02-.03.04-.06.06-.09.1-.16.21-.32.32-.48,0-.01.02-.03.03-.04.1-.15.21-.3.31-.45.02-.02.03-.05.05-.07.11-.15.22-.3.33-.44.01-.02.03-.04.04-.06.12-.16.24-.31.36-.46,0-.01.02-.02.02-.04.25-.32.51-.63.78-.94,0,0,.01-.01.02-.02.12-.14.24-.28.37-.42.01-.02.03-.03.05-.05.76-.83,1.57-1.62,2.43-2.35,4.33-7.62,11.08-13.53,19.12-16.53h-2.27c-20.09.01-36.37,16.3-36.37,36.39s16.28,36.38,36.37,36.39h2.27c-8.04-3-14.79-8.91-19.12-16.53"/>
      <path class="st23" d="M436.21,347.08s-.05-.05-.07-.07c-4.36-.9-8.32-2.88-11.59-5.66,4.33,7.62,11.08,13.53,19.11,16.53h18.34c-10.08-.02-19.21-4.15-25.79-10.8"/>
      <path class="st23" d="M480.88,285.1h-16.6c-8.04,3-14.79,8.91-19.11,16.53,3.26-2.77,7.21-4.76,11.57-5.65,6.2-6.33,14.72-10.39,24.15-10.86h0Z"/>
      <path class="st23" d="M424.54,301.63c3.27-2.78,7.23-4.77,11.59-5.66.03-.03.06-.06.09-.09.11-.11.23-.23.34-.34.09-.09.18-.18.28-.27.12-.11.24-.23.36-.34.09-.09.18-.17.28-.26.12-.11.25-.22.37-.33.09-.08.18-.16.28-.25.13-.11.26-.22.39-.33.09-.08.18-.16.28-.23.13-.11.26-.22.4-.33.09-.07.18-.15.28-.22.14-.11.28-.21.41-.32.09-.07.18-.14.27-.21.14-.11.29-.21.43-.32.09-.07.18-.13.27-.2.15-.11.3-.21.45-.32.09-.06.18-.12.27-.18.15-.11.31-.21.46-.31.09-.06.17-.12.26-.17.16-.1.32-.21.48-.31.08-.06.17-.11.25-.16.17-.1.33-.2.5-.3.08-.05.16-.1.25-.15.17-.1.35-.2.52-.29.08-.04.16-.09.24-.14.18-.1.36-.19.54-.29.08-.04.16-.08.23-.12.18-.1.37-.19.56-.28.07-.04.15-.07.22-.11.19-.09.39-.18.58-.28.07-.03.14-.07.21-.1.2-.09.4-.18.6-.27.07-.03.14-.06.2-.09.2-.09.41-.18.62-.26.06-.03.13-.05.19-.08.21-.09.43-.17.64-.25.06-.02.12-.05.18-.07.22-.08.44-.16.66-.24.06-.02.11-.04.17-.06.23-.08.46-.16.69-.23.05-.02.1-.04.15-.05.23-.07.47-.15.71-.22.05-.01.1-.03.14-.04.24-.07.49-.14.73-.2.04-.01.09-.02.13-.04.25-.07.5-.13.75-.19.04,0,.08-.02.12-.03.26-.06.51-.12.77-.18.04,0,.07-.01.1-.02.26-.06.53-.11.79-.16.03,0,.06-.01.09-.02.27-.05.54-.1.81-.14.03,0,.05,0,.08-.01.28-.04.55-.09.83-.12.02,0,.04,0,.07,0,.28-.04.57-.07.85-.1.02,0,.04,0,.06,0,.29-.03.58-.06.87-.09.02,0,.03,0,.05,0,.29-.03.59-.05.88-.07.01,0,.02,0,.04,0,.3-.02.6-.03.9-.04,0,0,.02,0,.03,0,.3-.01.61-.02.91-.02,0,0,.01,0,.02,0,0,0,0,0,.01,0h-18.07c-8.04,3-14.79,8.91-19.12,16.53"/>
      <path class="st4" d="M445.16,341.35c-.86-.73-1.67-1.51-2.43-2.34,0,0-.02-.02-.03-.03-.13-.15-.26-.29-.39-.44,0,0-.01-.01-.02-.02-.27-.31-.53-.62-.78-.94,0-.01-.02-.02-.02-.03-.12-.15-.24-.31-.36-.46-.01-.02-.03-.04-.04-.06-.11-.15-.22-.29-.33-.44-.02-.02-.03-.05-.05-.07-.1-.15-.21-.3-.31-.45,0-.01-.02-.03-.03-.04-.11-.16-.21-.32-.32-.48-.02-.03-.04-.06-.06-.09-.09-.15-.18-.29-.27-.44-.02-.03-.04-.07-.06-.1-.09-.15-.17-.29-.26-.44-.02-.04-.05-.09-.07-.13-.08-.14-.16-.28-.23-.42-.02-.03-.03-.06-.05-.09-.08-.15-.17-.31-.24-.46-.02-.04-.04-.08-.06-.12-.07-.15-.15-.29-.22-.44-.02-.05-.04-.09-.07-.14-.07-.14-.14-.29-.2-.43-.03-.07-.07-.15-.1-.23-.05-.12-.1-.24-.15-.36-.03-.07-.05-.13-.08-.2-.05-.13-.11-.26-.16-.39-.02-.04-.03-.09-.05-.13-.06-.15-.12-.31-.17-.46-.02-.06-.04-.11-.06-.17-.05-.14-.1-.29-.15-.43-.02-.05-.03-.11-.05-.16-.05-.15-.1-.3-.14-.45-.03-.09-.05-.18-.08-.27-.03-.11-.07-.23-.1-.35-.03-.1-.05-.19-.08-.29-.03-.11-.06-.22-.09-.33-.03-.11-.05-.22-.08-.33-.02-.1-.05-.2-.07-.3-.02-.11-.05-.21-.07-.31-.02-.11-.05-.21-.07-.32-.02-.09-.04-.18-.05-.27-.02-.12-.05-.25-.07-.37-.02-.12-.04-.25-.06-.37-.02-.09-.03-.18-.04-.27-.02-.13-.04-.26-.06-.39-.01-.09-.02-.17-.04-.26-.02-.12-.03-.23-.04-.35-.01-.1-.02-.2-.04-.3-.01-.12-.02-.25-.03-.37,0-.1-.02-.19-.03-.29,0-.08,0-.16-.01-.24-.04-.58-.06-1.17-.06-1.76s.02-1.18.06-1.76c0-.08,0-.16.01-.24,0-.1.02-.19.03-.29.01-.12.02-.25.03-.37.01-.1.02-.2.04-.3.01-.12.02-.24.04-.35.01-.09.02-.17.04-.26.02-.13.04-.26.06-.4.01-.1.03-.19.05-.29.02-.12.04-.24.06-.35.02-.13.05-.26.07-.39.02-.08.03-.16.05-.25.02-.11.05-.21.07-.32.02-.11.05-.21.07-.32.02-.1.05-.2.07-.3.03-.11.05-.22.08-.33.03-.11.06-.22.09-.33.03-.1.05-.19.08-.29.03-.11.06-.22.1-.32.03-.1.06-.2.09-.29.04-.14.09-.27.13-.41.02-.07.04-.13.07-.2.05-.14.1-.28.15-.42.02-.06.04-.12.06-.18.06-.15.11-.31.17-.46.02-.05.03-.09.05-.13.05-.14.11-.28.17-.42.02-.06.05-.12.07-.17.05-.12.11-.24.16-.37.03-.07.06-.14.09-.21.07-.15.14-.29.2-.43.02-.05.04-.09.07-.14.07-.15.14-.29.22-.44.02-.04.04-.08.06-.12.08-.16.16-.31.24-.47.02-.03.03-.06.05-.09.08-.14.15-.28.23-.42.02-.04.05-.09.07-.13.08-.15.17-.29.26-.43.02-.04.04-.07.06-.11.09-.15.18-.3.27-.44.02-.03.04-.06.06-.09.1-.16.21-.32.32-.48,0-.01.02-.03.03-.04.1-.15.21-.3.31-.45.02-.02.03-.05.05-.07.11-.15.22-.3.33-.44.01-.02.03-.04.04-.06.12-.16.24-.31.36-.46,0-.01.02-.02.02-.04.25-.32.51-.63.78-.94,0,0,.01-.01.02-.02.12-.14.24-.28.37-.42.01-.02.03-.03.05-.05.76-.83,1.57-1.62,2.43-2.35,4.33-7.62,11.08-13.53,19.12-16.53h-2.27c-.12,0-.24,0-.36,0-.3,0-.61,0-.91.02-.01,0-.02,0-.03,0-.3,0-.6.02-.9.04-.01,0-.03,0-.04,0-.3.02-.59.04-.88.07-.01,0-.03,0-.05,0-.29.03-.58.05-.87.08-.02,0-.04,0-.05,0-.28.03-.57.07-.85.11-.02,0-.05,0-.07,0-.28.04-.56.08-.83.12-.03,0-.05,0-.08.01-.27.04-.54.09-.81.14-.03,0-.06.01-.09.02-.27.05-.53.1-.8.16-.03,0-.07.01-.1.02-.26.06-.52.11-.77.18-.04,0-.08.02-.12.03-.25.06-.5.12-.75.19-.04.01-.09.02-.13.03-.25.07-.49.14-.73.21-.05.01-.1.03-.14.04-.24.07-.47.14-.71.22-.05.02-.1.03-.15.05-.23.07-.46.15-.69.23-.06.02-.11.04-.17.06-.22.08-.44.16-.66.24-.06.02-.12.04-.18.07-.22.08-.43.17-.64.25-.06.03-.13.05-.19.08-.21.09-.42.17-.62.26-.07.03-.13.06-.2.09-.2.09-.4.18-.6.27-.07.03-.14.07-.21.1-.19.09-.39.18-.58.28-.08.04-.15.08-.23.11-.19.09-.37.19-.56.28-.08.04-.16.08-.23.12-.18.1-.36.19-.54.29-.08.04-.16.09-.24.14-.17.1-.35.19-.52.29-.08.05-.17.1-.25.15-.17.1-.33.2-.5.3-.09.05-.17.11-.26.16-.16.1-.32.2-.48.31-.09.06-.18.11-.26.17-.15.1-.31.21-.46.31-.09.06-.18.12-.27.18-.15.11-.3.21-.45.32-.09.07-.18.13-.27.2-.14.11-.29.21-.43.32-.09.07-.18.14-.27.21-.14.11-.28.21-.41.32-.09.07-.18.15-.28.22-.13.11-.27.22-.4.33-.09.08-.18.16-.27.23-.13.11-.26.22-.39.33-.09.08-.18.16-.27.25-.12.11-.25.22-.37.33-.09.08-.18.17-.28.26-.12.11-.24.23-.36.34-.09.09-.18.18-.28.27-.11.11-.23.23-.34.34-6.52,6.57-10.54,15.62-10.54,25.61s4.02,19.02,10.52,25.59c6.59,6.66,15.74,10.79,25.85,10.8h2.27c-8.04-3-14.79-8.91-19.12-16.53"/>
    </g>
  </g>
  <g id="Livello_2">
    <path class="st8" d="M516.58,292.97l-.15.15c-.84.8-1.67,1.34-2.98,1.34-1.98,0-3.53-1.66-3.53-3.81s1.52-3.75,3.53-3.75c1.09,0,1.96.38,2.89,1.27l.16.15,1.05-1.12-.16-.15c-.88-.83-1.96-1.6-3.93-1.6-2.87,0-5.12,2.3-5.12,5.26s2.18,5.2,5.07,5.2c2.01,0,3.17-.89,4.03-1.77l.15-.15-1.02-1.01Z"/>
    <path class="st8" d="M525.49,291.74h-3.74l1.88-4.17,1.86,4.17ZM524.3,285.54h-1.31l-4.61,10.19h1.6l1.15-2.56h4.99l1.14,2.56h1.66l-4.61-10.19Z"/>
    <polygon class="st8" points="538.6 285.61 535.18 290.72 531.77 285.61 530.33 285.61 530.33 295.73 531.83 295.73 531.83 288.39 535.03 293.08 535.31 293.08 538.51 288.38 538.51 295.73 540.04 295.73 540.04 285.61 538.6 285.61"/>
    <polygon class="st8" points="543.73 294.3 543.73 291.35 549.02 291.35 549.02 289.91 543.73 289.91 543.73 287.04 549.64 287.04 549.64 285.61 542.2 285.61 542.2 295.73 549.71 295.73 549.71 294.3 543.73 294.3"/>
    <path class="st8" d="M558.1,288.77c0,1.08-.89,1.77-2.27,1.77h-2.76v-3.49h2.77c1.44,0,2.26.62,2.26,1.72M557.18,291.7c1.55-.4,2.47-1.49,2.47-2.99,0-.81-.29-1.54-.81-2.06-.67-.67-1.7-1.03-2.91-1.03h-4.38v10.12h1.53v-3.76h2.44l2.81,3.76h1.89l-3.03-4.04Z"/>
    <path class="st8" d="M568.2,291.74h-3.74l1.88-4.17,1.86,4.17ZM567.06,285.67l-.06-.13h-1.31l-4.61,10.19h1.6l1.15-2.56h4.99l1.14,2.56h1.66l-4.55-10.07Z"/>
    <path class="st8" d="M584.49,290.7c0,2.11-1.56,3.59-3.79,3.59h-2.05v-7.23h2.05c2.23,0,3.79,1.49,3.79,3.64M580.7,285.61h-3.58v10.12h3.58c3.11,0,5.36-2.13,5.36-5.09s-2.26-5.03-5.36-5.03"/>
    <rect class="st8" x="587.96" y="285.61" width="1.53" height="10.12"/>
    <g>
      <path class="st8" d="M516.58,308.38l-.15.15c-.84.8-1.67,1.34-2.98,1.34-1.98,0-3.53-1.66-3.53-3.81s1.52-3.75,3.53-3.75c1.09,0,1.96.38,2.89,1.27l.16.15,1.05-1.12-.16-.15c-.88-.83-1.96-1.6-3.93-1.6-2.87,0-5.12,2.3-5.12,5.26s2.18,5.2,5.07,5.2c2.01,0,3.17-.89,4.03-1.77l.15-.15-1.02-1.01Z"/>
      <path class="st8" d="M527.23,306.11c0,2.14-1.54,3.75-3.57,3.75s-3.6-1.62-3.6-3.81,1.54-3.75,3.57-3.75,3.6,1.62,3.6,3.81M523.66,300.86c-2.9,0-5.17,2.3-5.17,5.26s2.21,5.2,5.15,5.2,5.17-2.3,5.17-5.26-2.21-5.2-5.15-5.2"/>
    </g>
    <polygon class="st8" points="538.74 301.02 535.32 306.14 531.91 301.02 530.47 301.02 530.47 311.15 531.97 311.15 531.97 303.81 535.17 308.49 535.45 308.49 538.65 303.79 538.65 311.15 540.18 311.15 540.18 301.02 538.74 301.02"/>
    <polygon class="st8" points="550.75 301.02 547.33 306.14 543.92 301.02 542.48 301.02 542.48 311.15 543.98 311.15 543.98 303.81 547.18 308.49 547.46 308.49 550.66 303.79 550.66 311.15 552.19 311.15 552.19 301.02 550.75 301.02"/>
    <polygon class="st8" points="555.81 309.72 555.81 306.76 561.1 306.76 561.1 305.33 555.81 305.33 555.81 302.46 561.72 302.46 561.72 301.02 554.28 301.02 554.28 311.15 561.79 311.15 561.79 309.72 555.81 309.72"/>
    <g>
      <path class="st8" d="M570.18,304.19c0,1.08-.89,1.77-2.27,1.77h-2.76v-3.49h2.77c1.44,0,2.26.62,2.26,1.72M569.26,307.11c1.55-.4,2.47-1.49,2.47-2.99,0-.81-.29-1.54-.81-2.06-.67-.67-1.7-1.03-2.91-1.03h-4.38v10.12h1.53v-3.76h2.44l2.81,3.76h1.89l-3.03-4.04Z"/>
      <path class="st8" d="M581.27,308.38l-.15.15c-.84.8-1.67,1.34-2.98,1.34-1.98,0-3.53-1.66-3.53-3.81s1.52-3.75,3.53-3.75c1.09,0,1.96.38,2.89,1.27l.16.15,1.05-1.12-.16-.15c-.88-.83-1.96-1.6-3.93-1.6-2.87,0-5.12,2.3-5.12,5.26s2.18,5.2,5.07,5.2c2.01,0,3.17-.89,4.03-1.77l.15-.16-1.03-1.01Z"/>
    </g>
    <rect class="st8" x="584.19" y="301.02" width="1.53" height="10.12"/>
    <path class="st8" d="M596.3,306.11c0,2.14-1.54,3.75-3.57,3.75s-3.6-1.62-3.6-3.81,1.54-3.75,3.57-3.75,3.6,1.62,3.6,3.81M592.72,300.86c-2.9,0-5.17,2.3-5.17,5.26s2.21,5.2,5.14,5.2,5.17-2.3,5.17-5.26-2.21-5.2-5.14-5.2"/>
    <polygon class="st8" points="517.04 316.44 513.63 321.55 510.21 316.44 508.77 316.44 508.77 326.56 510.27 326.56 510.27 319.22 513.4 323.81 513.47 323.91 513.76 323.91 516.95 319.21 516.95 326.56 518.48 326.56 518.48 316.44 517.04 316.44"/>
    <rect class="st8" x="520.84" y="316.44" width="1.53" height="10.12"/>
    <polygon class="st8" points="526.26 325.12 526.26 316.44 524.73 316.44 524.73 326.56 531.71 326.56 531.71 325.12 526.26 325.12"/>
    <path class="st8" d="M539.87,322.57h-3.74l1.88-4.17,1.86,4.17ZM538.73,316.5l-.06-.13h-1.31l-4.61,10.19h1.6l1.15-2.56h4.99l1.14,2.56h1.66l-4.55-10.06Z"/>
    <polygon class="st8" points="551.9 316.44 551.9 323.79 546.19 316.52 546.13 316.44 544.78 316.44 544.78 326.56 546.28 326.56 546.28 319.03 552.21 326.56 553.41 326.56 553.41 316.44 551.9 316.44"/>
    <path class="st8" d="M563.68,321.53c0,2.14-1.54,3.76-3.57,3.76s-3.6-1.63-3.6-3.81,1.54-3.75,3.58-3.75,3.6,1.62,3.6,3.81M560.11,316.27c-2.9,0-5.17,2.3-5.17,5.26s2.21,5.2,5.15,5.2,5.17-2.3,5.17-5.26-2.21-5.2-5.14-5.2"/>
    <polygon class="st8" points="517.04 331.86 513.63 336.97 510.28 331.95 510.21 331.86 508.77 331.86 508.77 341.98 510.27 341.98 510.27 334.64 513.4 339.23 513.47 339.32 513.76 339.32 516.95 334.63 516.95 341.98 518.48 341.98 518.48 331.86 517.04 331.86"/>
    <path class="st8" d="M529.1,336.95c0,2.14-1.54,3.76-3.57,3.76s-3.6-1.63-3.6-3.81,1.54-3.75,3.57-3.75,3.6,1.63,3.6,3.81M525.53,331.69c-2.9,0-5.17,2.3-5.17,5.26s2.21,5.2,5.15,5.2,5.17-2.3,5.17-5.26-2.21-5.2-5.15-5.2"/>
    <polygon class="st8" points="539.67 331.86 539.67 339.21 533.89 331.86 532.54 331.86 532.54 341.98 534.05 341.98 534.05 334.45 539.98 341.98 541.17 341.98 541.17 331.86 539.67 331.86"/>
    <polygon class="st8" points="551.16 331.86 543.17 331.86 543.17 333.28 549 333.28 542.96 340.95 542.96 341.98 551.16 341.98 551.16 340.56 545.11 340.56 551.16 332.88 551.16 331.86"/>
    <path class="st8" d="M559.44,337.99h-3.74l1.88-4.17,1.86,4.17ZM558.3,331.92l-.06-.13h-1.31l-4.61,10.19h1.6l1.15-2.56h4.99l1.14,2.56h1.65l-4.55-10.06Z"/>
    <g>
      <path class="st8" d="M569.38,340.56h-3.03v-2.98h2.84c1.08,0,2.36.25,2.36,1.44v.03c0,.95-.81,1.51-2.16,1.51M568.99,336.18h-2.65v-2.9h2.73c1.22,0,1.93.5,1.93,1.36v.03c0,.95-.75,1.51-2.01,1.51M571.33,336.71c.62-.39,1.21-1.07,1.21-2.23,0-.66-.23-1.23-.69-1.71-.62-.6-1.54-.92-2.69-.92h-4.34v10.12h4.52c2.3,0,3.73-1.1,3.73-2.89,0-1.1-.59-1.9-1.75-2.38"/>
      <path class="st8" d="M581.31,335.02c0,1.08-.89,1.78-2.27,1.78h-2.76v-3.49h2.77c1.43,0,2.26.62,2.26,1.72M580.38,337.94c1.55-.4,2.47-1.49,2.47-2.99,0-.81-.29-1.54-.81-2.06-.67-.67-1.7-1.03-2.91-1.03h-4.38v10.12h1.53v-3.76h2.44l2.81,3.76h1.89l-3.04-4.04Z"/>
    </g>
    <rect class="st8" x="584.78" y="331.86" width="1.53" height="10.12"/>
    <path class="st8" d="M594.74,337.99h-3.74l1.88-4.17,1.86,4.17ZM593.6,331.92l-.06-.13h-1.31l-4.61,10.19h1.6l1.15-2.56h4.99l1.14,2.56h1.66l-4.55-10.06Z"/>
    <polygon class="st8" points="606.49 331.86 606.49 339.21 600.72 331.86 599.37 331.86 599.37 341.98 600.87 341.98 600.87 334.45 606.8 341.98 607.99 341.98 607.99 331.86 606.49 331.86"/>
    <polygon class="st8" points="618.12 331.86 610.13 331.86 610.13 333.28 615.96 333.28 609.93 340.95 609.93 341.98 618.12 341.98 618.12 340.56 612.07 340.56 618.12 332.88 618.12 331.86"/>
    <path class="st8" d="M626.26,337.99h-3.74l1.88-4.17,1.86,4.17ZM625.12,331.92l-.06-.13h-1.31l-4.61,10.19h1.6l1.15-2.56h4.99l1.14,2.56h1.66l-4.55-10.06Z"/>
    <polygon class="st8" points="510.3 355.95 510.3 347.27 508.77 347.27 508.77 357.39 515.75 357.39 515.75 355.95 510.3 355.95"/>
    <g>
      <path class="st8" d="M525.17,352.36c0,2.14-1.54,3.76-3.57,3.76s-3.6-1.63-3.6-3.81,1.54-3.75,3.57-3.75,3.6,1.63,3.6,3.81M521.6,347.11c-2.9,0-5.17,2.3-5.17,5.26s2.21,5.2,5.14,5.2,5.17-2.3,5.17-5.26-2.21-5.2-5.15-5.2"/>
      <path class="st8" d="M535.99,352.36c0,2.11-1.56,3.59-3.79,3.59h-2.05v-7.23h2.05c2.23,0,3.79,1.49,3.79,3.64M532.2,347.27h-3.58v10.12h3.58c3.11,0,5.36-2.13,5.36-5.09s-2.26-5.03-5.36-5.03"/>
    </g>
    <rect class="st8" x="539.6" y="347.27" width="1.53" height="10.12"/>
  </g>
</svg>