<?xml version="1.0" encoding="UTF-8"?>
<svg xmlns="http://www.w3.org/2000/svg" xmlns:xlink="http://www.w3.org/1999/xlink" version="1.1" id="Capa_1" x="0px" y="0px" viewBox="0 0 512 512" style="enable-background:new 0 0 512 512;" xml:space="preserve" width="512" height="512">
<g>
	<path style="fill:none;stroke:#000000;stroke-width:20;stroke-linecap:round;stroke-linejoin:round;stroke-miterlimit:10;" d="&#10;&#9;&#9;M40.812,440.376c17.008,0,30.812,13.776,30.812,30.812C71.624,488.196,57.82,502,40.812,502S10,488.196,10,471.188&#10;&#9;&#9;C10,454.152,23.804,440.376,40.812,440.376L40.812,440.376z"/>
	<path style="fill:none;stroke:#000000;stroke-width:20;stroke-linecap:round;stroke-linejoin:round;stroke-miterlimit:10;" d="&#10;&#9;&#9;M134.807,111.875l-86.2,329.493 M70.632,463.365l329.465-86.172"/>
	<path style="fill:none;stroke:#000000;stroke-width:20;stroke-linecap:round;stroke-linejoin:round;stroke-miterlimit:10;" d="&#10;&#9;&#9;M110.543,204.623c10.63,91.614,77.895,172.173,144.507,210.497"/>
	<path style="fill:none;stroke:#000000;stroke-width:20;stroke-linecap:round;stroke-linejoin:round;stroke-miterlimit:10;" d="&#10;&#9;&#9;M87.81,291.532c-2.835,43.483,18.737,114.432,63.041,150.857"/>
	<path style="fill:none;stroke:#000000;stroke-width:20;stroke-linecap:round;stroke-linejoin:round;stroke-miterlimit:10;" d="&#10;&#9;&#9;M323.052,188.948c-74.691-74.691-156.073-114.432-181.726-88.751c-25.681,25.681,14.031,107.034,88.723,181.726&#10;&#9;&#9;s156.073,114.432,181.754,88.751C437.485,344.992,397.744,263.639,323.052,188.948L323.052,188.948z"/>
	<path style="fill:none;stroke:#000000;stroke-width:20;stroke-linecap:round;stroke-linejoin:round;stroke-miterlimit:10;" d="&#10;&#9;&#9;M502,283.708c-45.92-45.892-120.328-45.892-166.249,0"/>
	<path style="fill:none;stroke:#000000;stroke-width:20;stroke-linecap:round;stroke-linejoin:round;stroke-miterlimit:10;" d="&#10;&#9;&#9;M228.264,10c45.892,45.892,45.892,120.328,0,166.22"/>
	<path style="fill:none;stroke:#000000;stroke-width:20;stroke-linecap:round;stroke-linejoin:round;stroke-miterlimit:10;" d="&#10;&#9;&#9;M272.001,239.97l114.829-114.829 M422.15,89.85l22.563-22.563"/>
	
		<polygon style="fill:none;stroke:#000000;stroke-width:20;stroke-linecap:round;stroke-linejoin:round;stroke-miterlimit:10;" points="&#10;&#9;&#9;30.182,44.582 64.736,10 99.318,44.582 64.736,79.164 &#9;"/>
	
		<rect x="441.453" y="138.209" style="fill:none;stroke:#000000;stroke-width:20;stroke-linecap:round;stroke-linejoin:round;stroke-miterlimit:10;" width="48.897" height="48.897"/>
	
		<polygon style="fill:none;stroke:#000000;stroke-width:20;stroke-linecap:round;stroke-linejoin:round;stroke-miterlimit:10;" points="&#10;&#9;&#9;353.496,10 369.426,37.524 396.95,53.454 369.426,69.356 353.496,96.909 337.565,69.356 310.041,53.454 337.565,37.524 &#9;"/>
	
		<polygon style="fill:none;stroke:#000000;stroke-width:20;stroke-linecap:round;stroke-linejoin:round;stroke-miterlimit:10;" points="&#10;&#9;&#9;458.546,484.539 474.448,457.015 502,441.085 474.448,425.183 458.546,397.63 442.615,425.183 415.091,441.085 442.615,457.015 &#9;&#10;&#9;&#9;"/>
</g>















</svg>
