<?xml version="1.0" encoding="UTF-8" standalone="no"?>
<!-- Created with Inkscape (http://www.inkscape.org/) -->

<svg
   version="1.1"
   id="svg1863"
   xml:space="preserve"
   width="682.66669"
   height="682.66669"
   viewBox="0 0 682.66669 682.66669"
   xmlns="http://www.w3.org/2000/svg"
   xmlns:svg="http://www.w3.org/2000/svg"><defs
     id="defs1867"><clipPath
       clipPathUnits="userSpaceOnUse"
       id="clipPath1877"><path
         d="M 0,512 H 512 V 0 H 0 Z"
         id="path1875" /></clipPath></defs><g
     id="g1869"
     transform="matrix(1.3333333,0,0,-1.3333333,0,682.66667)"><g
       id="g1871"><g
         id="g1873"
         clip-path="url(#clipPath1877)"><g
           id="g1879"
           transform="translate(424.3564,360.3853)"><path
             d="m 0,0 c 0,-18.081 -11.096,-31.621 -24.38,-31.621 -13.285,0 -25.034,13.352 -25.034,31.433 0,18.081 12.401,30.127 25.686,30.127 C -10.442,29.939 0,18.081 0,0 Z"
             style="fill:none;stroke:#000000;stroke-width:15;stroke-linecap:round;stroke-linejoin:round;stroke-miterlimit:10;stroke-dasharray:none;stroke-opacity:1"
             id="path1881" /></g><g
           id="g1883"
           transform="translate(401.79,298.1597)"><path
             d="m 0,0 c -26.424,0.731 -50.518,18.615 -57.671,45.817 -8.258,31.398 9.803,64.191 40.737,74.038 32.72,10.416 67.517,-7.991 77.403,-40.747 C 63.967,66.002 61.925,54.6 57.289,42.945 55.451,38.323 49.39,27.504 35.905,27.504 c -7.36,0 -13.497,7.056 -13.457,15.181 l 0.267,48.016"
             style="fill:none;stroke:#000000;stroke-width:15;stroke-linecap:round;stroke-linejoin:round;stroke-miterlimit:10;stroke-dasharray:none;stroke-opacity:1"
             id="path1885" /></g><g
           id="g1887"
           transform="translate(460.3135,72.5859)"><path
             d="M 0,0 -157.399,140.318"
             style="fill:none;stroke:#000000;stroke-width:15;stroke-linecap:round;stroke-linejoin:round;stroke-miterlimit:10;stroke-dasharray:none;stroke-opacity:1"
             id="path1889" /></g><g
           id="g1891"
           transform="translate(73.7119,122.52)"><path
             d="M 0,0 -56.013,-49.934"
             style="fill:none;stroke:#000000;stroke-width:15;stroke-linecap:round;stroke-linejoin:round;stroke-miterlimit:10;stroke-dasharray:none;stroke-opacity:1"
             id="path1893" /></g><g
           id="g1895"
           transform="translate(175.0996,212.9043)"><path
             d="M 0,0 -75.123,-66.97"
             style="fill:none;stroke:#000000;stroke-width:15;stroke-linecap:round;stroke-linejoin:round;stroke-miterlimit:10;stroke-dasharray:none;stroke-opacity:1"
             id="path1897" /></g><g
           id="g1899"
           transform="translate(17.8232,354.5117)"><path
             d="m 0,0 192.194,-173.047 c 16.479,-14.837 41.5,-14.837 57.979,0 l 94.512,85.096"
             style="fill:none;stroke:#000000;stroke-width:15;stroke-linecap:round;stroke-linejoin:round;stroke-miterlimit:10;stroke-dasharray:none;stroke-opacity:1"
             id="path1901" /></g><g
           id="g1903"
           transform="translate(267.6338,375.8965)"><path
             d="m 0,0 h -207.418 c -29.114,0 -52.716,-23.602 -52.716,-52.715 v -219.439 c 0,-29.115 23.602,-52.716 52.716,-52.716 h 357.582 c 29.114,0 52.716,23.601 52.716,52.716 v 143.251"
             style="fill:none;stroke:#000000;stroke-width:15;stroke-linecap:round;stroke-linejoin:round;stroke-miterlimit:10;stroke-dasharray:none;stroke-opacity:1"
             id="path1905" /></g><g
           id="g1907"
           transform="translate(504.5,359.5444)"><path
             d="m 0,0 c 0,-56.018 -45.411,-101.429 -101.429,-101.429 -56.017,0 -101.428,45.411 -101.428,101.429 0,56.018 45.411,101.429 101.428,101.429 C -45.411,101.429 0,56.018 0,0 Z"
             style="fill:none;stroke:#000000;stroke-width:15;stroke-linecap:round;stroke-linejoin:round;stroke-miterlimit:10;stroke-dasharray:none;stroke-opacity:1"
             id="path1909" /></g></g></g></g></svg>
