<svg enable-background="new 0 0 64 64" viewBox="0 0 64 64" xmlns="http://www.w3.org/2000/svg"><g id="Layer_1"/><g id="Layer_2"><g><path d="m31.8232422 35.7128906c.0803585-5.6862164-5.581913-10.0448914-11.053894-8.5444336 1.7558784-5.2504272-2.0330124-10.9798965-7.6474371-10.9227848-4.4461298-.0000668-8.0633173 3.6171207-8.0633173 8.0634098 0 1.9881592.7322998 4.4705811 1.9040527 6.5564575-6.0525813 4.4835587-3.1540444 14.3045464 2.1740723 18.2335815l-.8681641 1.7421875c-.1542969.3100586-.1367188.6777344.0449219.972168.1826172.2944336.5039063.4736328.8505859.4736328h2.1914063v8.7128907c0 .5522461.4472656 1 1 1s1-.4477539 1-1v-8.7128906h2.1914063c.3466797 0 .6679688-.1791992.8505859-.4736328.1816406-.2944336.1992188-.6621094.0449219-.972168l-.8652344-1.7373047c1.237915-.8222656 2.2226563-2.0085449 2.9639893-3.1422119.3985596.3901978.80896.7321777 1.2322998 1.0137939l-.8662109 1.7382813c-.1542969.3100586-.1367188.6777344.0449219.972168.1826172.2944336.5039063.4736328.8505859.4736328h2.1914063v5.7524414c0 .5522461.4472656 1 1 1s1-.4477539 1-1v-5.7524414h2.1914063c.3466797 0 .6679688-.1791992.8505859-.4736328.1816406-.2944336.1992188-.6621094.0449219-.972168l-.8681641-1.7421875c3.2646483-2.1967774 5.6103514-7.4863281 5.6103514-11.2587891zm-18.7011719-17.4672851c3.34375 0 6.0634766 2.7202148 6.0634766 6.0634766.0076923 1.8389225-.842947 4.4203339-2.0092773 6.1365967-.0213013-.0133667-.0424194-.0267944-.0639648-.0394287-2.4483318-1.6291752-5.7849798-1.8215256-8.4453125-.5883789-.9794923-1.7705079-1.6083985-3.8881837-1.6083985-5.5087892 0-3.3432617 2.7197265-6.0634765 6.0634765-6.0634765zm.7138672 29.5507812c-.4996548.2209015-.7249966.8676567-.4716673 1.3515663-.0000124-.0000038.5673704 1.1391563.5673704 1.1391563h-3.1523438c.366992-.7767525 1.2240105-1.9023857.0985813-2.4892616-2.9647923-1.3994102-5.351511-6.5913048-5.351511-9.9570274-.1435366-5.2218857 6.1489239-8.7007313 10.5234375-5.7407227 5.7657224 3.4652711 2.5160409 13.0461655-2.2138671 15.6962891zm10.6357422-2.1259765c-.4975014.2228622-.7206879.8671074-.4687386 1.3501015-.0000114-.0000038.5673714 1.1391563.5673714 1.1391563h-3.1523438l.5673828-1.1391602c.2534447-.4840927.0275917-1.1299744-.4716911-1.3515587-.6669807-.3125038-1.3193245-.8222694-1.9462776-1.5190468 1.9772911-3.9148979 2.4888744-9.0663261-.8212891-12.4057617.4435978-.6727562.8206234-1.3981514 1.1669922-2.1269531 4.3626328-2.333786 10.0308704 1.1209126 9.9100456 6.0958138.0001107 3.3661003-2.3866081 8.5579948-5.3514518 9.9574089z"/><path d="m60.4697266 17.2262573v-9.1364135c0-.5522461-.4472656-1-1-1h-5.1015625v-4.0898438c0-.5522461-.4472656-1-1-1h-7.5976563c-.5527344 0-1 .4477539-1 1v4.0898438h-15.3662109v-4.0898438c0-.5522461-.4472656-1-1-1h-7.5976563c-.5527344 0-1 .4477539-1 1v4.0898438h-4.8066406c-.5527344 0-1 .4477539-1 1v4.9101562c.0052805 1.3063202 1.9946117 1.3088274 1.9999962-.0000629.0000038.0000629.0000038-3.9100933.0000038-3.9100933h42.4697266v7.1557617h-35.4697266c-.5527344 0-1 .4477539-1 1s.4472656 1 1 1h35.4736328v31.5791015h-28.5800781c-.5527344 0-1 .4477539-1 1s.4472656 1 1 1h29.5800781c.5527344 0 1-.4477539 1-1 .0061379-.0138168.0002556-33.5864219-.0039062-33.5984497zm-13.6992188-13.2262573h5.5976563v3.0878906h-5.5976563zm-24.9638672 0h5.5976563v3.0878906h-5.5976563z"/><path d="m43.3916016 28.7490234c-.9252014-.9208889-2.3366928.4857216-1.4140129 1.4141045-.0000496-.000042 2.6708488 2.6708565 2.6708488 2.6708565.3871956.3870926 1.0116844.3906708 1.4042969.0102539 0 0 9.0302734-8.7758789 9.0302734-8.7758789.9284554-.9119186-.4477577-2.3442822-1.394577-1.4345207.0000458-.0000496-8.3231964 8.0888176-8.3231964 8.0888176z"/><path d="m46.2460938 21.3334961c-10.7606468.4070797-10.7593498 15.8390083.000103 16.2456169 4.4784126-.0000114 8.1219673-3.6440544 8.1219673-8.1230583 0-.5522461-.4472656-1-1-1s-1 .4477539-1 1c-.2863426 8.1032753-11.9587173 8.1022491-12.2451248-.0001011-.131176-4.8241959 5.7505302-7.8739586 9.6221771-5.0256233.4549789.3152752 1.0770493.2029705 1.3924789-.2486897 1.085598-1.9053802-3.5993843-2.9121399-4.8916015-2.8481445z"/><path d="m33.0351563 41.6665039c0 .5522461.4472656 1 1 1h9.1582031c.5527344 0 1-.4477539 1-1s-.4472656-1-1-1h-9.1582031c-.5527344 0-1 .4477539-1 1z"/><path d="m34.0351563 46.7368164h16.2802734c1.3026962-.0046082 1.3117943-1.9944305-.0000687-1.9999962.0000687-.0000038-16.2802048-.0000038-16.2802048-.0000038-1.3026962.0046082-1.3117942 1.9944305.0000001 2z"/></g></g></svg>