<svg id="Layer_1" enable-background="new 0 0 66 66" height="512" viewBox="0 0 66 66" width="512" xmlns="http://www.w3.org/2000/svg"><g><path d="m61.72 4.08h-5.82v-2.35c0-.4-.32-.73-.73-.73s-.73.32-.73.73v2.36h-9.64v-2.36c0-.4-.32-.73-.73-.73s-.73.32-.73.73v2.36h-9.64v-2.36c.03-.41-.3-.73-.7-.73s-.73.32-.73.73v2.36h-9.64v-2.36c0-.4-.32-.73-.73-.73s-.73.32-.73.73v2.36h-9.64v-2.36c0-.4-.32-.73-.73-.73-.4 0-.73.32-.73.73v2.36h-5.79c-1.63 0-2.95 1.32-2.95 2.95v43.39c0 1.63 1.32 2.95 2.95 2.95h4.6c.4 0 .73-.32.73-.73s-.32-.73-.73-.73h-4.6c-.83 0-1.5-.67-1.5-1.5v-33h60.44v33c0 .83-.67 1.5-1.5 1.5h-9.31c-.4 0-.73.32-.73.73s.32.73.73.73h9.31c1.63 0 2.95-1.32 2.95-2.95v-43.4c0-1.62-1.32-2.95-2.95-2.95zm-58.94 11.89v-8.94c0-.83.67-1.5 1.5-1.5h5.82v2.54c-1.12.33-1.95 1.35-1.95 2.58 0 1.48 1.2 2.68 2.68 2.68s2.68-1.2 2.68-2.68c0-1.23-.83-2.26-1.95-2.57v-2.55h9.64v2.54c-1.12.32-1.95 1.35-1.95 2.57 0 1.48 1.2 2.68 2.68 2.68s2.68-1.2 2.68-2.68c0-1.23-.83-2.26-1.95-2.57v-2.54h9.64v2.54c-1.12.32-1.95 1.35-1.95 2.57 0 1.48 1.2 2.68 2.68 2.68s2.68-1.2 2.68-2.68c0-1.23-.83-2.26-1.95-2.57v-2.54h9.64v2.54c-1.12.32-1.95 1.35-1.95 2.57 0 1.48 1.2 2.68 2.68 2.68s2.68-1.2 2.68-2.68c0-1.23-.83-2.26-1.95-2.57v-2.54h9.64v2.54c-1.12.32-1.95 1.35-1.95 2.57 0 1.48 1.2 2.68 2.68 2.68s2.68-1.2 2.68-2.68c0-1.23-.83-2.26-1.95-2.57v-2.54h5.82c.83 0 1.5.67 1.5 1.5v8.94zm8.05-6.56c.68 0 1.23.56 1.23 1.24s-.55 1.23-1.23 1.23-1.23-.55-1.23-1.23.55-1.24 1.23-1.24zm11.08 0c.68 0 1.23.56 1.23 1.24s-.55 1.23-1.23 1.23-1.23-.55-1.23-1.23.56-1.24 1.23-1.24zm11.09 0c.68 0 1.23.56 1.23 1.24s-.55 1.23-1.23 1.23-1.23-.55-1.23-1.23.55-1.24 1.23-1.24zm11.09 0c.68 0 1.23.56 1.23 1.24s-.55 1.23-1.23 1.23-1.23-.55-1.23-1.23.55-1.24 1.23-1.24zm11.08 0c.68 0 1.23.56 1.23 1.24s-.55 1.23-1.23 1.23-1.23-.55-1.23-1.23c.01-.68.56-1.24 1.23-1.24z"/><path d="m23.4 37.39v-7.99h.11c.79 0 1.43-.64 1.43-1.43v-3.55-2.18c0-1.11-.9-2.01-2.01-2.01h-6.57c-1.11 0-2.01.9-2.01 2.01v5.73c0 .79.64 1.43 1.43 1.43h.11v8c-2.93.24-5.23 2.69-5.23 5.67v20.17c0 .97.79 1.76 1.76 1.76h14.72c.97 0 1.76-.79 1.76-1.76v-20.17c-.01-3.07-2.45-5.58-5.5-5.68zm-.47-15.71c.31 0 .56.25.56.56v1.46h-7.69v-1.46c0-.31.25-.56.56-.56zm-7.13 3.46h7.69v2.81h-.81-.01-6.05c-.03 0-.06.01-.08.02h-.73v-2.83zm6.15 4.26v7.97h-4.6v-7.97zm5.19 34.15h-14.72c-.17 0-.31-.14-.31-.31v-4.38h15.33v4.38c0 .17-.13.31-.3.31zm-15.03-6.13v-10.53h15.33v10.52h-15.33zm15.33-11.98h-15.33v-2.37c0-2.34 1.91-4.25 4.25-4.25h.26 6.05.52c2.34 0 4.25 1.9 4.25 4.25z"/><path d="m19.78 48.55c-1.99 0-3.6 1.61-3.6 3.6s1.61 3.6 3.6 3.6 3.6-1.61 3.6-3.6-1.62-3.6-3.6-3.6zm0 5.75c-1.19 0-2.15-.96-2.15-2.15s.96-2.15 2.15-2.15 2.15.96 2.15 2.15-.97 2.15-2.15 2.15z"/><path d="m48.77 63.55h-2.46l-3.7-3.33v-3.93c5.48-.38 9.82-4.94 9.82-10.51v-8.35c0-.91-.74-1.65-1.65-1.65h-17.8c-.91 0-1.65.74-1.65 1.65v8.35c0 5.57 4.35 10.14 9.82 10.51v3.93l-3.71 3.33h-2.44c-.4 0-.73.32-.73.73 0 .4.32.73.73.73h11.03 2.74c.4 0 .73-.32.73-.73-.01-.41-.33-.73-.73-.73zm-15.79-26.33h17.8c.11 0 .2.09.2.2v4.81c-3.36-.83-6.21.42-8.75 1.55-3.41 1.51-6.12 2.7-9.45-.87v-5.49c.01-.11.1-.2.2-.2zm-.19 8.55v-.86c1.56 1.31 3.06 1.8 4.52 1.8 1.9 0 3.73-.81 5.52-1.6 2.52-1.12 5.13-2.26 8.16-1.37v2.04c0 5.02-4.08 9.1-9.1 9.1s-9.1-4.09-9.1-9.11zm9.09 15.75 2.26 2.03h-4.51z"/><path d="m33.74 23.41h23.39c.4 0 .73-.32.73-.73s-.32-.73-.73-.73h-23.39c-.4 0-.73.32-.73.73s.33.73.73.73z"/><path d="m33.74 27.37h23.39c.4 0 .73-.32.73-.73 0-.4-.32-.73-.73-.73h-23.39c-.4 0-.73.32-.73.73.01.41.33.73.73.73z"/><path d="m57.13 29.89h-13.58c-.4 0-.73.32-.73.73 0 .4.32.73.73.73h13.57c.4 0 .73-.32.73-.73s-.32-.73-.72-.73z"/></g></svg>