<svg viewBox="0 0 512 512.00177" xmlns="http://www.w3.org/2000/svg"><path d="m204.132812 156.328125c2.628907 0 5.207032-1.058594 7.066407-2.929687 1.863281-1.859376 2.933593-4.429688 2.933593-7.070313 0-2.628906-1.070312-5.207031-2.933593-7.070313-1.859375-1.859374-4.4375-2.929687-7.066407-2.929687-2.640624 0-5.210937 1.070313-7.070312 2.929687-1.871094 1.863282-2.929688 4.441407-2.929688 7.070313 0 2.640625 1.058594 5.210937 2.929688 7.070313 1.859375 1.871093 4.429688 2.929687 7.070312 2.929687zm0 0"/><path d="m473.527344 360.265625c1.5.824219 3.15625 1.234375 4.8125 1.234375 1.765625 0 3.527344-.46875 5.09375-1.394531 3.042968-1.800781 4.90625-5.074219 4.90625-8.605469v-145.449219c6.78125-6.261719 13.457031-12.667969 20.027344-19.21875.214843-.175781.4375-.339843.636718-.535156 2.890625-2.835937 3.785156-7.132813 2.269532-10.882813l-48.234376-119.414062c16.289063-11.582031 31.667969-24.5625 46.035157-38.929688 3.902343-3.90625 3.902343-10.238281 0-14.140624-3.90625-3.90625-10.238281-3.90625-14.144531 0-131.746094 131.746093-346.113282 131.746093-477.855469 0-3.90625-3.90625-10.238281-3.90625-14.144531 0-3.90625 3.902343-3.90625 10.234374 0 14.140624 14.367187 14.367188 29.746093 27.347657 46.035156 38.929688l-48.234375 119.414062c-1.515625 3.75-.621094 8.046876 2.265625 10.882813 2.890625 2.832031 7.203125 3.648437 10.925781 2.058594l58.519531-24.933594 24.78125 58.582031c1.566406 3.703125 5.195313 6.105469 9.207032 6.105469h.082031c4.046875-.035156 7.675781-2.503906 9.191406-6.253906l45.507813-112.664063c30.753906 8.4375 62.488281 12.707032 94.789062 12.707032 14.164062 0 28.214844-.832032 42.128906-2.464844v98.273437l-34.921875-35.011719c-1.875-1.878906-4.421875-2.9375-7.078125-2.9375s-5.203125 1.058594-7.082031 2.9375l-34.917969 35.011719v-34.375c0-5.523437-4.476562-10-10-10-5.523437 0-10 4.476563-10 10v58.5625c0 4.046875 2.4375 7.695313 6.179688 9.242188 3.738281 1.546875 8.042968.6875 10.898437-2.179688l44.917969-45.039062 44.921875 45.039062c1.914063 1.917969 4.476563 2.9375 7.082031 2.9375 1.285156 0 2.582032-.246093 3.816406-.757812 3.742188-1.546875 6.179688-5.195313 6.179688-9.242188v-125.386719c10.996094-1.925781 21.890625-4.363281 32.664062-7.316406l45.507813 112.660156c1.515625 3.753907 5.144531 6.222657 9.191406 6.253907h.082031c4.011719 0 7.640626-2.398438 9.207032-6.101563l24.78125-58.585937 44.667968 19.035156c-128.207031 122.875-295.980468 190.363281-474.125 190.363281-5.523437 0-10 4.480469-10 10 0 5.523438 4.476563 10 10 10 2.539063 0 5.078126-.015625 7.617188-.042968l71.214844 114.195312c1.839844 2.949219 5.058594 4.707031 8.484375 4.707031.347656 0 .695312-.015625 1.042969-.054687 3.804687-.398438 7.050781-2.933594 8.355468-6.527344l40.574219-111.589844 80.226563 88.289063c1.925781 2.117187 4.625 3.273437 7.402343 3.273437.933594 0 1.878907-.132812 2.804688-.402344 3.671875-1.070312 6.410156-4.144531 7.050781-7.917968l19.953125-117.101563 93.546875 73.390625c1.796875 1.410156 3.976562 2.132813 6.175781 2.132813 1.488281 0 2.980469-.332031 4.371094-1.007813 3.441406-1.671875 5.625-5.160156 5.628906-8.984375l.089844-119.203125zm-367.308594-168.328125-19.265625-45.542969c-1.035156-2.445312-3-4.378906-5.464844-5.375-2.464843-.996093-5.222656-.96875-7.664062.070313l-45.492188 19.386718 37.605469-93.101562c17.535156 11.003906 36.027344 20.460938 55.390625 28.316406 6.832031 2.769532 13.734375 5.296875 20.683594 7.632813zm362.121094 142.664062-86.4375-47.457031c30.292968-18.800781 59.148437-39.929687 86.4375-63.304687zm-30.160156-193.511718c-2.445313-1.039063-5.203126-1.066406-7.667969-.070313-2.460938.996094-4.429688 2.929688-5.464844 5.375l-19.261719 45.542969-35.796875-88.613281c6.953125-2.335938 13.851563-4.863281 20.683594-7.632813 19.363281-7.855468 37.855469-17.3125 55.390625-28.316406l37.605469 93.101562zm-343.140626 337.871094-54.140624-86.8125c30.027343-1.285157 59.773437-4.449219 89.152343-9.484376zm133.570313-25.816407-69.207031-76.164062c29.21875-6.300781 58.035156-14.472657 86.359375-24.503907zm45.710937-111.472656c.433594-.179687.875-.347656 1.3125-.527344 27.230469-11.039062 53.585938-23.695312 79.011719-37.917969l-.078125 101.398438zm0 0"/><path d="m111.980469 276.019531c-1.175781-3.617187-4.308594-6.253906-8.074219-6.800781l-26.710938-3.875-11.953124-24.199219c-1.6875-3.414062-5.160157-5.574219-8.964844-5.574219h-.003906c-3.804688.003907-7.28125 2.164063-8.964844 5.578126l-11.9375 24.207031-26.710938 3.890625c-3.765625.546875-6.894531 3.1875-8.070312 6.804687-1.175782 3.621094-.191406 7.59375 2.535156 10.25l19.332031 18.835938-4.558593 26.601562c-.640626 3.753907.902343 7.542969 3.984374 9.78125 1.742188 1.265625 3.800782 1.910157 5.875 1.910157 1.59375 0 3.191407-.382813 4.65625-1.152344l23.886719-12.566406 23.890625 12.554687c3.371094 1.769531 7.453125 1.476563 10.53125-.761719 3.082032-2.238281 4.621094-6.03125 3.976563-9.78125l-4.570313-26.601562 19.324219-18.847656c2.722656-2.660157 3.703125-6.632813 2.527344-10.253907zm-39.578125 18.449219c-2.355469 2.300781-3.429688 5.609375-2.875 8.855469l2.03125 11.8125-10.613282-5.574219c-2.910156-1.53125-6.394531-1.53125-9.304687 0l-10.609375 5.582031 2.023438-11.8125c.554687-3.246093-.519532-6.554687-2.878907-8.851562l-8.582031-8.367188 11.859375-1.726562c3.257813-.472657 6.070313-2.519531 7.527344-5.46875l5.300781-10.75 5.308594 10.746093c1.457031 2.949219 4.273437 4.996094 7.53125 5.46875l11.859375 1.71875zm0 0"/><path d="m507.449219 449.488281-24.054688-15.625-.765625-28.667969c-.101562-3.804687-2.355468-7.222656-5.8125-8.8125-3.457031-1.59375-7.519531-1.085937-10.476562 1.308594l-22.292969 18.046875-27.5-8.128906c-3.652344-1.078125-7.597656.007813-10.179687 2.804687-2.585938 2.796876-3.355469 6.816407-1.992188 10.367188l10.277344 26.777344-16.234375 23.644531c-2.152344 3.140625-2.339844 7.226563-.476563 10.546875 1.859375 3.320312 5.445313 5.304688 9.246094 5.097656l28.640625-1.496094 17.472656 22.742188c1.914063 2.492188 4.859375 3.90625 7.925781 3.90625.652344 0 1.304688-.0625 1.957032-.191406 3.730468-.742188 6.71875-3.542969 7.703125-7.21875l7.425781-27.699219 27.03125-9.589844c3.585938-1.273437 6.140625-4.472656 6.585938-8.25.449218-3.785156-1.289063-7.492187-4.480469-9.5625zm-40.777344 10.304688c-3.101563 1.101562-5.460937 3.65625-6.3125 6.835937l-3.542969 13.210938-8.328125-10.847656c-1.898437-2.46875-4.835937-3.90625-7.929687-3.90625-.175782 0-.351563.003906-.523438.015624l-13.65625.714844 7.738282-11.277344c1.863281-2.710937 2.269531-6.167968 1.089843-9.242187l-4.898437-12.765625 13.113281 3.875c3.15625.933594 6.570313.253906 9.128906-1.816406l10.628907-8.605469.363281 13.671875c.089843 3.289062 1.789062 6.324219 4.550781 8.117188l11.46875 7.449218zm0 0"/><path d="m266 48c2.558594 0 5.121094-.976562 7.070312-2.929688l14-14c3.90625-3.90625 3.90625-10.238281 0-14.144531-3.902343-3.902343-10.234374-3.902343-14.140624 0l-14 14c-3.90625 3.90625-3.90625 10.238281 0 14.144531 1.953124 1.953126 4.511718 2.929688 7.070312 2.929688zm0 0"/><path d="m239.300781 74.699219c2.628907 0 5.210938-1.058594 7.070313-2.917969 1.859375-1.871094 2.929687-4.441406 2.929687-7.070312 0-2.640626-1.070312-5.222657-2.929687-7.082032s-4.441406-2.929687-7.070313-2.929687c-2.640625 0-5.21875 1.070312-7.070312 2.929687-1.871094 1.859375-2.941407 4.441406-2.941407 7.082032 0 2.628906 1.070313 5.199218 2.941407 7.070312 1.851562 1.859375 4.429687 2.917969 7.070312 2.917969zm0 0"/><path d="m193 299.5c2.558594 0 5.121094-.976562 7.070312-2.929688 3.90625-3.90625 3.90625-10.238281 0-14.144531l-12-12c-3.902343-3.902343-10.234374-3.902343-14.140624 0-3.90625 3.90625-3.90625 10.238281 0 14.144531l12 12c1.953124 1.953126 4.511718 2.929688 7.070312 2.929688zm0 0"/><path d="m312.542969 462.542969-8.382813 8.386719c-3.90625 3.902343-3.90625 10.234374 0 14.140624 1.953125 1.953126 4.511719 2.929688 7.070313 2.929688 2.558593 0 5.117187-.976562 7.070312-2.929688l8.386719-8.386718c3.902344-3.90625 3.90625-10.238282 0-14.140625-3.90625-3.90625-10.238281-3.90625-14.144531 0zm0 0"/></svg>