<?xml version="1.0" encoding="UTF-8"?>
<svg id="Livello_1" xmlns="http://www.w3.org/2000/svg" version="1.1" viewBox="0 0 841.89 595.28">
  <!-- Generator: Adobe Illustrator 30.1.0, SVG Export Plug-In . SVG Version: 2.1.1 Build 136)  -->
  <defs>
    <style>
      .st0 {
        fill-rule: evenodd;
      }

      .st0, .st1 {
        fill: #e84e0f;
      }
    </style>
  </defs>
  <polygon class="st0" points="477.57 292.94 477.57 291.45 477.6 291.31 477.64 291.17 477.74 291.06 477.85 290.96 477.97 290.92 478.13 290.9 477.97 290.92 478.13 290.9 489.57 290.9 489.69 290.87 489.8 290.82 489.88 290.75 489.93 290.66 489.97 290.54 489.95 290.45 489.93 290.33 489.55 289.71 489.15 289.1 488.72 288.52 488.27 287.96 487.78 287.42 487.29 286.91 486.76 286.4 486.2 285.96 485.62 285.51 485.03 285.09 484.4 284.7 483.77 284.35 483.12 284.04 482.47 283.74 481.8 283.49 481.09 283.27 480.39 283.09 479.7 282.92 478.97 282.81 478.25 282.72 477.55 282.67 476.83 282.65 469.88 282.65 469.75 282.67 469.6 282.72 469.49 282.81 469.39 282.92 469.33 283.07 469.3 283.2 469.3 301.19 469.33 301.36 469.39 301.48 469.49 301.61 469.6 301.68 469.75 301.75 469.88 301.78 480.74 301.78 480.91 301.8 481.04 301.85 481.14 301.94 481.23 302.06 481.31 302.17 481.31 302.34 481.31 302.17 481.31 302.34 481.31 303.83 481.31 303.97 481.23 304.11 481.14 304.23 481.04 304.32 480.91 304.39 480.74 304.39 480.91 304.39 480.74 304.39 469.88 304.39 469.75 304.41 469.6 304.46 469.49 304.55 469.39 304.67 469.33 304.81 469.3 304.95 469.3 312.08 469.33 312.24 469.39 312.36 469.49 312.47 469.6 312.57 469.75 312.61 469.88 312.64 476.81 312.64 477.55 312.61 478.27 312.57 479.02 312.47 479.74 312.36 480.47 312.2 481.17 311.98 481.89 311.75 482.56 311.5 483.23 311.19 483.89 310.87 484.54 310.5 485.17 310.1 485.75 309.68 486.36 309.21 486.92 308.74 487.43 308.23 487.94 307.7 488.43 307.14 488.88 306.55 489.29 305.95 489.69 305.32 490.06 304.67 490.39 304.01 490.69 303.34 490.95 302.66 491.18 301.94 491.37 301.24 491.53 300.52 491.67 299.8 491.74 299.05 491.79 298.33 491.81 297.58 491.79 296.86 491.74 296.11 491.65 295.39 491.51 294.65 491.35 293.95 491.3 293.8 491.21 293.69 491.09 293.6 490.95 293.53 490.81 293.53 478.13 293.53 477.97 293.51 477.85 293.44 477.74 293.36 477.64 293.25 477.6 293.11 477.57 292.94 477.6 293.11 477.57 292.94 477.57 292.94"/>
  <polygon class="st0" points="452.27 290.9 466.13 290.9 466.27 290.87 466.41 290.82 466.53 290.73 466.62 290.62 466.66 290.47 466.69 290.33 466.69 283.2 466.66 283.07 466.62 282.92 466.53 282.81 466.41 282.72 466.27 282.67 466.13 282.65 444.02 282.65 443.85 282.67 443.71 282.72 443.6 282.81 443.5 282.92 443.46 283.07 443.43 283.2 443.43 301.19 443.46 301.36 443.5 301.48 443.6 301.61 443.71 301.71 443.85 301.75 444.02 301.78 457.88 301.78 458.02 301.8 458.16 301.85 458.28 301.94 458.37 302.06 458.42 302.17 458.44 302.34 458.42 302.17 458.44 302.34 458.44 303.83 458.42 303.97 458.37 304.11 458.28 304.23 458.16 304.32 458.02 304.39 457.88 304.39 458.02 304.39 457.88 304.39 444.02 304.39 443.85 304.41 443.71 304.46 443.6 304.55 443.5 304.67 443.46 304.81 443.43 304.95 443.43 312.08 443.46 312.24 443.5 312.36 443.6 312.47 443.71 312.57 443.85 312.61 444.02 312.64 466.13 312.64 466.27 312.61 466.41 312.57 466.53 312.47 466.62 312.36 466.66 312.22 466.69 312.08 466.69 294.09 466.66 293.93 466.62 293.8 466.53 293.67 466.41 293.6 466.27 293.55 466.13 293.53 452.27 293.53 452.1 293.51 451.96 293.44 451.84 293.36 451.78 293.25 451.71 293.11 451.68 292.94 451.71 293.11 451.68 292.94 451.68 291.45 451.71 291.31 451.78 291.17 451.84 291.06 451.96 290.96 452.1 290.92 452.27 290.9 452.1 290.92 452.27 290.9 452.27 290.9"/>
  <polygon class="st0" points="406.34 283.51 409.11 295.35 409.16 295.41 409.27 295.44 409.34 295.35 411.18 283.11 411.23 282.97 411.32 282.83 411.44 282.74 411.58 282.67 411.74 282.65 411.58 282.67 411.74 282.65 419.27 282.65 419.43 282.67 419.56 282.74 419.68 282.83 419.78 282.97 419.83 283.11 419.78 282.97 419.83 283.11 421.67 295.35 421.76 295.44 421.86 295.41 421.88 295.35 424.67 283.51 424.72 283.32 424.81 283.16 424.93 283.02 425.07 282.9 425.23 282.79 425.4 282.72 425.58 282.67 425.77 282.65 425.58 282.67 425.77 282.65 440.26 282.65 440.4 282.67 440.52 282.72 440.66 282.81 440.73 282.92 440.8 283.07 440.82 283.2 440.8 283.07 440.82 283.2 440.82 290.33 440.8 290.47 440.73 290.62 440.66 290.73 440.52 290.82 440.4 290.87 440.26 290.9 440.4 290.87 440.26 290.9 431.85 290.9 431.71 290.92 431.57 290.96 431.45 291.06 431.36 291.17 431.31 291.34 426.42 312.06 426.37 312.22 426.28 312.36 426.17 312.47 426.02 312.57 425.86 312.61 425.7 312.64 425.86 312.64 425.7 312.64 418.59 312.64 418.43 312.61 418.27 312.57 418.12 312.47 418.01 312.36 417.91 312.2 417.87 312.03 417.91 312.2 417.87 312.03 415.61 300.45 415.54 300.38 415.47 300.38 415.4 300.45 413.14 312.03 413.09 312.2 413 312.36 412.88 312.47 412.74 312.57 412.58 312.61 412.42 312.64 412.58 312.64 412.42 312.64 405.31 312.64 405.15 312.61 404.98 312.57 404.84 312.47 404.72 312.36 404.64 312.22 404.59 312.06 399.69 291.34 399.65 291.17 399.55 291.06 399.44 290.96 399.3 290.92 399.16 290.9 390.77 290.9 390.61 290.87 390.46 290.82 390.35 290.73 390.28 290.62 390.21 290.47 390.19 290.33 390.21 290.47 390.19 290.33 390.19 283.2 390.21 283.07 390.28 282.92 390.35 282.81 390.46 282.72 390.61 282.67 390.77 282.65 390.61 282.67 390.77 282.65 405.24 282.65 405.42 282.67 405.61 282.72 405.78 282.79 405.94 282.9 406.08 283.02 406.19 283.16 406.26 283.32 406.34 283.51 406.34 283.51"/>
  <polygon class="st1" points="433.13 312.64 440.26 312.64 440.4 312.64 440.52 312.57 440.66 312.47 440.73 312.36 440.8 312.24 440.82 312.08 440.82 294.09 440.8 293.95 440.73 293.8 440.66 293.67 440.52 293.6 440.4 293.55 440.26 293.53 433.13 293.53 432.97 293.55 432.85 293.6 432.74 293.67 432.65 293.8 432.57 293.93 432.57 294.09 432.57 312.08 432.57 312.22 432.65 312.36 432.74 312.47 432.85 312.57 432.97 312.61 433.13 312.64 433.13 312.64"/>
  <polygon class="st0" points="362.83 290.9 372.01 290.9 372.15 290.87 372.29 290.82 372.41 290.73 372.5 290.62 372.54 290.47 372.57 290.33 372.57 283.2 372.54 283.07 372.5 282.92 372.41 282.81 372.29 282.72 372.15 282.67 372.01 282.65 365.07 282.65 364.34 282.67 363.6 282.72 362.88 282.81 362.15 282.92 361.43 283.09 360.73 283.3 360.01 283.53 359.33 283.79 358.66 284.09 358 284.42 357.37 284.79 356.74 285.16 356.14 285.6 355.55 286.04 355 286.54 354.46 287.03 353.97 287.56 353.48 288.12 353.02 288.7 352.6 289.31 352.2 289.94 351.85 290.56 351.5 291.22 351.22 291.9 350.94 292.6 350.73 293.29 350.52 293.99 350.36 294.72 350.24 295.44 350.15 296.16 350.08 296.91 350.08 297.63 350.08 298.37 350.15 299.1 350.24 299.84 350.36 300.57 350.52 301.29 350.73 301.98 350.94 302.69 351.22 303.39 351.5 304.06 351.85 304.71 352.2 305.34 352.6 305.97 353.02 306.58 353.48 307.16 353.97 307.72 354.46 308.25 355 308.74 355.55 309.23 356.14 309.7 356.74 310.12 357.37 310.52 358 310.87 358.66 311.19 359.33 311.5 360.01 311.75 360.73 312.01 361.43 312.2 362.15 312.36 362.88 312.47 363.6 312.57 364.34 312.61 365.07 312.64 372.01 312.64 372.15 312.61 372.29 312.57 372.41 312.47 372.5 312.36 372.54 312.24 372.57 312.08 372.57 294.09 372.54 293.95 372.5 293.8 372.41 293.69 372.29 293.6 372.15 293.55 372.01 293.53 364.88 293.53 364.74 293.55 364.6 293.6 364.48 293.67 364.41 293.8 364.34 293.95 364.32 294.09 364.32 303.83 364.3 303.97 364.25 304.11 364.16 304.23 364.04 304.32 363.9 304.39 363.76 304.39 362.27 304.39 362.1 304.39 361.99 304.32 361.85 304.23 361.78 304.11 361.71 303.97 361.69 303.83 361.69 292.02 361.71 291.83 361.78 291.64 361.85 291.45 361.96 291.29 362.1 291.15 362.27 291.06 362.43 290.96 362.64 290.92 362.83 290.9 362.64 290.92 362.83 290.9 362.83 290.9"/>
  <polygon class="st0" points="398.44 304.81 398.46 304.95 398.44 304.81 398.36 304.67 398.27 304.55 398.16 304.46 398.02 304.41 397.88 304.39 384.01 304.39 383.87 304.39 383.73 304.32 383.62 304.23 383.52 304.11 383.48 303.97 383.45 303.83 383.45 302.34 383.48 302.17 383.52 302.06 383.62 301.94 383.73 301.85 383.87 301.8 384.01 301.78 397.88 301.78 398.02 301.75 397.88 301.78 398.02 301.75 398.16 301.71 398.27 301.61 398.36 301.5 398.44 301.36 398.46 301.19 398.46 294.09 398.44 293.95 398.46 294.09 398.44 293.95 398.36 293.8 398.27 293.69 398.16 293.6 398.02 293.55 397.88 293.53 384.01 293.53 383.87 293.51 383.73 293.44 383.62 293.36 383.52 293.25 383.48 293.11 383.45 292.94 383.45 291.45 383.48 291.31 383.52 291.17 383.62 291.06 383.73 290.96 383.87 290.92 384.01 290.9 387.02 290.9 387.16 290.87 387.02 290.9 387.16 290.87 387.29 290.82 387.41 290.73 387.48 290.62 387.55 290.47 387.57 290.33 387.57 283.2 387.55 283.07 387.57 283.2 387.55 283.07 387.48 282.92 387.41 282.81 387.29 282.72 387.16 282.67 387.02 282.65 375.76 282.65 375.62 282.67 375.76 282.65 375.62 282.67 375.48 282.72 375.36 282.81 375.27 282.92 375.22 283.07 375.2 283.2 375.2 312.08 375.22 312.24 375.2 312.08 375.22 312.24 375.27 312.36 375.36 312.47 375.48 312.57 375.62 312.61 375.76 312.64 397.88 312.64 398.02 312.64 397.88 312.64 398.02 312.61 398.16 312.57 398.27 312.47 398.36 312.36 398.44 312.24 398.46 312.08 398.44 304.81 398.44 304.81"/>
</svg>