<?xml version="1.0" encoding="iso-8859-1"?>
<!-- Generator: Adobe Illustrator 19.0.0, SVG Export Plug-In . SVG Version: 6.00 Build 0)  -->
<svg version="1.1" id="Layer_1" xmlns="http://www.w3.org/2000/svg" xmlns:xlink="http://www.w3.org/1999/xlink" x="0px" y="0px"
	 viewBox="0 0 512 512" style="enable-background:new 0 0 512 512;" xml:space="preserve">
<g>
	<g>
		<g>
			<path d="M123.093,212.386c4.215-2.091,5.948-7.211,3.857-11.435c-2.091-4.224-7.202-5.965-11.435-3.857
				c-8.704,4.309-13.116,9.771-13.116,16.239c0,32.486,127.949,34.133,153.6,34.133c25.651,0,153.6-1.647,153.6-34.133
				c0-6.63-4.642-12.203-13.815-16.572c-4.25-2.039-9.344-0.23-11.375,4.019c-2.022,4.258-0.23,9.353,4.028,11.375
				c0.964,0.461,1.732,0.879,2.338,1.246C379.819,220.041,334.328,230.4,256,230.4c-78.336,0-123.827-10.359-134.784-16.998
				C121.728,213.094,122.342,212.753,123.093,212.386z"/>
			<path d="M307.2,93.867v115.2c0,4.71,3.823,8.533,8.533,8.533s8.533-3.823,8.533-8.533v-115.2c0-4.71-3.823-8.533-8.533-8.533
				S307.2,89.156,307.2,93.867z"/>
			<path d="M273.058,221.867c0.256,0,0.521-0.009,0.776-0.034c4.702-0.427,8.158-4.582,7.731-9.267
				c-7.953-87.475,20.813-180.582,34.159-194.5c12.885,13.73,42.112,106.59,34.185,185.882c-0.469,4.693,2.953,8.875,7.637,9.344
				c4.804,0.521,8.875-2.953,9.344-7.637c7.637-76.331-18.441-176.657-38.852-199.219c-7.68-8.491-16.794-8.533-24.482-0.128
				c-20.787,22.758-46.524,124.911-38.989,207.795C264.969,218.539,268.689,221.867,273.058,221.867z"/>
			<path d="M204.8,209.067v-115.2c0-4.71-3.823-8.533-8.533-8.533s-8.533,3.823-8.533,8.533v115.2c0,4.71,3.823,8.533,8.533,8.533
				S204.8,213.777,204.8,209.067z"/>
			<path d="M426.667,25.6c0,4.71,3.823,8.533,8.533,8.533s8.533-3.823,8.533-8.533c4.71,0,8.533-3.823,8.533-8.533
				s-3.823-8.533-8.533-8.533c0-4.71-3.823-8.533-8.533-8.533s-8.533,3.823-8.533,8.533c-4.71,0-8.533,3.823-8.533,8.533
				S421.956,25.6,426.667,25.6z"/>
			<path d="M394.266,140.919c-4.651-0.964-9.139,2.022-10.086,6.639s2.022,9.122,6.639,10.078
				c63.249,13.005,104.115,34.867,104.115,55.697c0,32.29-98.125,68.267-238.933,68.267S17.067,245.623,17.067,213.333
				c0-20.83,40.866-42.692,104.115-55.697c4.608-0.956,7.586-5.461,6.639-10.078s-5.453-7.595-10.086-6.639
				C42.914,156.305,0,182.699,0,213.333c0,55.424,131.9,85.333,256,85.333s256-29.909,256-85.333
				C512,182.707,469.086,156.305,394.266,140.919z"/>
			<path d="M401.067,298.667c-4.71,0-8.533,3.823-8.533,8.533v157.875c-10.445,7.151-50.406,29.858-136.533,29.858
				c-85.248,0-125.884-22.767-136.533-29.909V348.006c20.318,10.658,63.821,27.46,136.533,27.46
				c54.135,0,91.793-9.557,113.852-17.579c4.429-1.613,6.707-6.511,5.103-10.94c-1.621-4.429-6.528-6.707-10.94-5.103
				C343.253,349.397,307.652,358.4,256,358.4c-82.688,0-125.227-22.921-136.533-30.106V307.2c0-4.71-3.823-8.533-8.533-8.533
				s-8.533,3.823-8.533,8.533v162.133c0,2.466,1.067,4.804,2.918,6.426C107.017,477.244,148.079,512,256,512
				c109.184,0,149.129-34.842,150.775-36.326c1.801-1.621,2.825-3.925,2.825-6.34V307.2
				C409.6,302.49,405.777,298.667,401.067,298.667z"/>
			<path d="M154.453,213.291c4.685-0.469,8.107-4.651,7.637-9.344c-7.927-79.292,21.299-172.151,34.185-185.882
				c13.346,13.918,42.112,107.025,34.159,194.5c-0.427,4.685,3.029,8.841,7.731,9.267c0.256,0.026,0.521,0.034,0.777,0.034
				c4.369,0,8.09-3.328,8.491-7.765c7.535-82.884-18.202-185.037-38.989-207.795c-7.689-8.414-16.802-8.371-24.482,0.128
				c-20.412,22.562-46.49,122.889-38.852,199.219C145.579,210.338,149.786,213.82,154.453,213.291z"/>
			<path d="M85.333,85.333c0,4.71,3.823,8.533,8.533,8.533c4.71,0,8.533-3.823,8.533-8.533c4.71,0,8.533-3.823,8.533-8.533
				s-3.823-8.533-8.533-8.533c0-4.71-3.823-8.533-8.533-8.533c-4.71,0-8.533,3.823-8.533,8.533c-4.71,0-8.533,3.823-8.533,8.533
				S80.623,85.333,85.333,85.333z"/>
			<path d="M8.533,34.133h8.533v8.533c0,4.71,3.823,8.533,8.533,8.533c4.71,0,8.533-3.823,8.533-8.533v-8.533h8.533
				c4.71,0,8.533-3.823,8.533-8.533c0-4.71-3.823-8.533-8.533-8.533h-8.533V8.533C34.133,3.823,30.31,0,25.6,0
				c-4.71,0-8.533,3.823-8.533,8.533v8.533H8.533C3.823,17.067,0,20.89,0,25.6C0,30.31,3.823,34.133,8.533,34.133z"/>
		</g>
	</g>
</g>
<g>
</g>
<g>
</g>
<g>
</g>
<g>
</g>
<g>
</g>
<g>
</g>
<g>
</g>
<g>
</g>
<g>
</g>
<g>
</g>
<g>
</g>
<g>
</g>
<g>
</g>
<g>
</g>
<g>
</g>
</svg>
