<svg id="outline" height="512" viewBox="0 0 48 48" width="512" xmlns="http://www.w3.org/2000/svg"><path d="m28.262 5.794h1.4v1.455a.75.75 0 0 0 1.5 0v-1.455h1.4a.75.75 0 0 0 0-1.5h-1.4v-1.455a.75.75 0 0 0 -1.5 0v1.455h-1.4a.75.75 0 0 0 0 1.5z"/><path d="m16.218 4.33h2.011v2.081a.75.75 0 1 0 1.5 0v-2.081h2.01a.75.75 0 0 0 0-1.5h-2.01v-2.08a.75.75 0 0 0 -1.5 0v2.08h-2.011a.75.75 0 0 0 0 1.5z"/><path d="m12.312 11.086h.857v.9a.75.75 0 0 0 1.5 0v-.9h.858a.75.75 0 0 0 0-1.5h-.858v-.9a.75.75 0 1 0 -1.5 0v.9h-.857a.75.75 0 0 0 0 1.5z"/><path d="m32.56 23.118c-3.158 1.1-8.431 1.751-14.1 1.751-10.726 0-16.577-2.2-16.577-3.33s5.847-3.329 16.573-3.329a64.183 64.183 0 0 1 8.846.578.75.75 0 1 0 .212-1.484 65.524 65.524 0 0 0 -9.058-.594c-8.706 0-18.077 1.511-18.077 4.829 0 1.887 3.035 3.189 7.251 3.961a31.067 31.067 0 0 1 .57 6.081c0 3.613-1.6 10.107-2.284 12.731a1.8 1.8 0 0 0 1.269 2.209 42.847 42.847 0 0 0 11.271 1.479 42.814 42.814 0 0 0 11.267-1.479 1.8 1.8 0 0 0 1.27-2.209c-.687-2.624-2.284-9.118-2.284-12.731a30.987 30.987 0 0 1 .577-6.1 26.434 26.434 0 0 0 3.766-.942.75.75 0 0 0 -.492-1.416zm-5.112 4.367c-.924.125-1.891.235-2.909.319a.75.75 0 0 0 .06 1.5q.032 0 .063 0c.919-.075 1.794-.173 2.643-.282-.058.791-.1 1.643-.1 2.565 0 3.788 1.631 10.431 2.333 13.111a.31.31 0 0 1 -.222.383 41.241 41.241 0 0 1 -10.86 1.419 41.274 41.274 0 0 1 -10.866-1.425.31.31 0 0 1 -.22-.384c.7-2.679 2.332-9.322 2.332-13.11 0-.921-.037-1.771-.1-2.561a72.3 72.3 0 0 0 8.849.52c1.343 0 2.683-.033 3.982-.1a.749.749 0 0 0 .712-.786.733.733 0 0 0 -.786-.712c-1.275.064-2.59.1-3.908.1a69.688 69.688 0 0 1 -8.993-.553c-.077-.643-.166-1.218-.259-1.732a66.507 66.507 0 0 0 9.252.614 64.993 64.993 0 0 0 9.254-.632c-.088.515-.179 1.095-.257 1.746z"/><path d="m11.742 20.312a.754.754 0 0 0 -.852-.632c-2.7.4-3.758.923-3.758 1.859 0 2.023 7.1 2.325 11.324 2.325s11.324-.3 11.324-2.325-7.1-2.325-11.324-2.325c-1.749 0-3.484.064-5.019.185a.751.751 0 0 0 -.689.808.768.768 0 0 0 .807.689c1.5-.12 3.191-.182 4.9-.182a38.52 38.52 0 0 1 9.213.825 38.52 38.52 0 0 1 -9.213.825 38.621 38.621 0 0 1 -9.206-.823 14.453 14.453 0 0 1 1.86-.377.75.75 0 0 0 .633-.852z"/><path d="m47.041 30.8-20.812-22.069a2.13 2.13 0 1 0 -3.1 2.922l20.812 22.064a2.13 2.13 0 0 0 3.1-2.922zm-22.794-21.066a.631.631 0 0 1 .891.027l5.221 5.539-.917.863-5.221-5.535a.631.631 0 0 1 .026-.894zm21.676 22.98a.632.632 0 0 1 -.891-.026l-14.56-15.438.916-.863 14.562 15.437a.629.629 0 0 1 -.027.89z"/><path d="m32.678 10.391a.75.75 0 0 0 1.5 0v-.037a.735.735 0 0 0 -.75-.732.767.767 0 0 0 -.75.769z"/><path d="m18.85 13.44a.75.75 0 0 0 1.5 0v-.04a.734.734 0 0 0 -.75-.731.765.765 0 0 0 -.75.771z"/><path d="m10.3 4.044a.75.75 0 0 0 .75-.75v-.035a.736.736 0 0 0 -.75-.733.766.766 0 0 0 -.75.768.75.75 0 0 0 .75.75z"/></svg>