<svg id="Icon" viewBox="0 0 64 64" xmlns="http://www.w3.org/2000/svg"><path d="m31.37842 50.08057c.18213.14404.40186.21631.62158.21631s.43945-.07227.62158-.21631c.70947-.56299 17.37842-13.9707 17.37842-30.08057 0-9.92529-8.07471-18-18-18s-18 8.07471-18 18c0 16.10986 16.66895 29.51758 17.37842 30.08057zm.62158-46.08057c8.82227 0 16 7.17773 16 16 0 13.44336-12.97949 25.39404-16 27.99268-3.02051-2.59863-16-14.54932-16-27.99268 0-8.82227 7.17773-16 16-16z"/><path d="m42 20c0-5.51416-4.48584-10-10-10-2.86035 0-5.59082 1.23291-7.4917 3.38232l1.49805 1.3252c1.52148-1.7207 3.70605-2.70752 5.99365-2.70752 4.41113 0 8 3.58887 8 8s-3.58887 8-8 8-8-3.58887-8-8c0-.88086.14258-1.74609.42432-2.57227l-1.89355-.64453c-.35205 1.03418-.53076 2.11621-.53076 3.2168 0 5.51416 4.48584 10 10 10s10-4.48584 10-10z"/><path d="m47.20361 44.8418c-.28467-.07715-.58936-.02539-.83301.14307-.24268.16846-.39893.43555-.42578.72949-.36426 3.93604-6.61963 7.13818-13.94482 7.13818s-13.58057-3.20215-13.94482-7.13818c-.02686-.29395-.18311-.56104-.42578-.72949-.24316-.16846-.54883-.22021-.83301-.14307-6.51514 1.77783-10.10352 4.49902-10.10352 7.66309 0 2.92285 3.12695 5.51074 8.80518 7.28711l.59668-1.90918c-4.63477-1.44971-7.40186-3.45996-7.40186-5.37793 0-1.9458 2.88184-3.98975 7.59619-5.43457 1.32764 4.51074 7.77051 7.78223 15.71094 7.78223s14.3833-3.27148 15.71094-7.78223c4.71436 1.44482 7.59619 3.48877 7.59619 5.43457 0 3.54492-9.57178 7.49512-23.30713 7.49512-4.44043 0-8.77051-.42725-12.52246-1.23486l-.4209 1.95508c3.88818.8374 8.36377 1.27979 12.94336 1.27979 12.26807 0 25.30713-3.32764 25.30713-9.49512 0-3.16406-3.58838-5.88525-10.10352-7.66309z"/></svg>