<svg id="a" height="512" viewBox="0 0 512 512" width="512" xmlns="http://www.w3.org/2000/svg" data-name="line" fill="#ffffff"><g fill="#ffffff"><path d="m339.5.06.02-.06h-167.06l.02.06c-45.18 1.34-81.53 38.48-81.53 83.99v343.9c0 46.34 37.7 84.05 84.05 84.05h161.98c46.34 0 84.05-37.7 84.05-84.05v-343.9c.01-45.5-36.34-82.65-81.53-83.99zm-28.87 19.94-.71 1.88c-5.41 14.37-19.35 24.02-34.7 24.02h-38.45c-15.35 0-29.3-9.65-34.7-24.02l-.71-1.88zm90.41 407.95c0 35.32-28.73 64.05-64.05 64.05h-161.98c-35.32 0-64.05-28.73-64.05-64.05v-343.9c0-35.32 28.73-64.05 64.05-64.05h4.99l3.36 8.92c8.32 22.12 29.79 36.98 53.42 36.98h38.45c23.63 0 45.1-14.86 53.42-36.98l3.36-8.92h4.99c35.32 0 64.05 28.73 64.05 64.05v343.9z"/><path d="m296.69 423.79h-81.38c-5.52 0-10 4.48-10 10s4.48 10 10 10h81.38c5.52 0 10-4.48 10-10s-4.48-10-10-10z"/></g></svg>