<svg id="Layer_2" enable-background="new 0 0 100 100" viewBox="0 0 100 100" xmlns="http://www.w3.org/2000/svg"><g><g><path d="m67.089859 97.5h-34.1797142c-7.762207 0-14.0771561-6.314949-14.0771561-14.0766602v-66.8466758c0-7.761715 6.3149491-14.076664 14.0771561-14.076664h34.1797142c7.7621994 0 14.0771484 6.314949 14.0771484 14.076664v66.8466797c0 7.7617073-6.314949 14.0766563-14.0771484 14.0766563zm-34.1797142-90.7650838c-5.4266014 0-9.8412552 4.4151464-9.8412552 9.8417473v66.8466797c0 5.4265976 4.4146538 9.8417435 9.8412552 9.8417435h34.1797142c5.4265976 0 9.8412552-4.4151459 9.8412552-9.8417435v-66.8466792c0-5.4266014-4.4146576-9.8417473-9.8412552-9.8417473h-34.1797142z"/></g><g><path d="m55.7957954 9.5941906h-11.5915908c-1.7779427 0-3.4687195-.7701311-4.6356812-2.1115022l-2.4926834-2.8652305h25.84832l-2.4926834 2.8652306c-1.1669617 1.341371-2.8577385 2.1115021-4.6356812 2.1115021z"/><path d="m55.7959251 11.7114344h-11.5918502c-2.3917427 0-4.663826-1.0341072-6.2336998-2.8393631l-2.492691-2.8649697c-.5446281-.6253891-.673645-1.5117669-.3294373-2.2671576.3442115-.7553909 1.0976333-1.239944 1.9273796-1.239944h25.8487473c.8297462 0 1.5831642.4845531 1.9273796 1.239944.3442078.7553906.2151947 1.6417685-.3294373 2.2671576l-2.492691 2.8649697c-1.5698739 1.8052559-3.8419572 2.8393631-6.2336999 2.8393631zm-13.9195785-4.9765182c.6741409.4776587 1.4856682.7416024 2.3277283.7416024h11.5918503c.8420601 0 1.6535873-.2639437 2.3277283-.7416024z"/></g><g><path d="m56.6099167 85.507309h-13.2198334c-1.1695251 0-2.1179504-.9474411-2.1179504-2.1174545 0-1.1700211.9484253-2.1174622 2.1179504-2.1174622h13.2198334c1.1695251 0 2.1179504.9474411 2.1179504 2.1174622 0 1.1700134-.9484253 2.1174545-2.1179504 2.1174545z"/></g></g></svg>