<svg id="Layer_1" height="512" viewBox="0 0 100 100" width="512" xmlns="http://www.w3.org/2000/svg"><g><path d="m65 93h-30c-6.617 0-12-5.383-12-12v-62c0-6.617 5.383-12 12-12h30c6.617 0 12 5.383 12 12v62c0 6.617-5.383 12-12 12zm-30-82c-4.411 0-8 3.589-8 8v62c0 4.411 3.589 8 8 8h30c4.411 0 8-3.589 8-8v-62c0-4.411-3.589-8-8-8z"/><path d="m58.13 21h-16.26c-1.869 0-3.626-.729-4.95-2.05-1.322-1.323-2.05-3.081-2.05-4.95v-5c0-1.104.896-2 2-2h26.26c1.104 0 2 .896 2 2v5c0 1.87-.728 3.628-2.05 4.949-1.303 1.304-3.107 2.051-4.95 2.051zm-19.26-10v3c0 .801.312 1.555.878 2.121.567.567 1.321.879 2.122.879h16.26c.79 0 1.563-.32 2.122-.879.566-.566.878-1.319.878-2.121v-3z"/><path d="m55 86h-10c-1.104 0-2-.896-2-2s.896-2 2-2h10c1.104 0 2 .896 2 2s-.896 2-2 2z"/></g></svg>