<?xml version="1.0" encoding="UTF-8" standalone="no"?>
<!-- Created with Inkscape (http://www.inkscape.org/) -->

<svg
   version="1.1"
   id="svg3831"
   xml:space="preserve"
   width="682.66669"
   height="682.66669"
   viewBox="0 0 682.66669 682.66669"
   xmlns="http://www.w3.org/2000/svg"
   xmlns:svg="http://www.w3.org/2000/svg"><defs
     id="defs3835"><clipPath
       clipPathUnits="userSpaceOnUse"
       id="clipPath3845"><path
         d="M 0,512 H 512 V 0 H 0 Z"
         id="path3843" /></clipPath></defs><g
     id="g3837"
     transform="matrix(1.3333333,0,0,-1.3333333,0,682.66667)"><g
       id="g3839"><g
         id="g3841"
         clip-path="url(#clipPath3845)"><g
           id="g3847"
           transform="translate(464.3992,195.8393)"><path
             d="m 0,0 -27.868,7.467 -49.693,-185.458 27.868,-7.467 c 5.947,-1.593 12.061,1.936 13.654,7.884 L 7.883,-13.654 C 9.477,-7.707 5.948,-1.594 0,0 Z"
             style="fill:none;stroke:#000000;stroke-width:20;stroke-linecap:round;stroke-linejoin:round;stroke-miterlimit:10;stroke-dasharray:none;stroke-opacity:1"
             id="path3849" /></g><g
           id="g3851"
           transform="translate(435.2047,198.3562)"><path
             d="M 0,0 -15.187,15.027 C -31.764,31.43 -59.876,23.817 -65.912,1.291 l -19.46,-72.628 -19.395,-72.383 c -6.036,-22.526 14.503,-43.174 37.061,-37.257 l 20.666,5.42 z"
             style="fill:none;stroke:#000000;stroke-width:20;stroke-linecap:round;stroke-linejoin:round;stroke-miterlimit:10;stroke-dasharray:none;stroke-opacity:1"
             id="path3853" /></g><g
           id="g3855"
           transform="translate(472.3429,182.4093)"><path
             d="m 0,0 v 0 l -44.043,-164.369 h 10e-4 c 21.338,-5.717 43.272,6.946 48.989,28.284 L 28.284,-48.99 C 34.002,-27.651 21.339,-5.718 0,0 Z"
             style="fill:none;stroke:#000000;stroke-width:20;stroke-linecap:round;stroke-linejoin:round;stroke-miterlimit:10;stroke-dasharray:none;stroke-opacity:1"
             id="path3857" /></g><g
           id="g3859"
           transform="translate(47.6008,195.8393)"><path
             d="m 0,0 27.868,7.467 49.693,-185.458 -27.868,-7.467 c -5.947,-1.593 -12.061,1.936 -13.654,7.884 L -7.883,-13.654 C -9.477,-7.707 -5.948,-1.594 0,0 Z"
             style="fill:none;stroke:#000000;stroke-width:20;stroke-linecap:round;stroke-linejoin:round;stroke-miterlimit:10;stroke-dasharray:none;stroke-opacity:1"
             id="path3861" /></g><g
           id="g3863"
           transform="translate(76.7953,198.3562)"><path
             d="M 0,0 15.187,15.027 C 31.764,31.43 59.876,23.817 65.912,1.291 l 19.46,-72.628 19.395,-72.383 c 6.036,-22.526 -14.503,-43.174 -37.061,-37.257 l -20.666,5.42 z"
             style="fill:none;stroke:#000000;stroke-width:20;stroke-linecap:round;stroke-linejoin:round;stroke-miterlimit:10;stroke-dasharray:none;stroke-opacity:1"
             id="path3865" /></g><g
           id="g3867"
           transform="translate(39.6571,182.4093)"><path
             d="m 0,0 v 0 l 44.043,-164.369 h -10e-4 c -21.338,-5.717 -43.272,6.946 -48.989,28.284 L -28.284,-48.99 C -34.002,-27.651 -21.339,-5.718 0,0 Z"
             style="fill:none;stroke:#000000;stroke-width:20;stroke-linecap:round;stroke-linejoin:round;stroke-miterlimit:10;stroke-dasharray:none;stroke-opacity:1"
             id="path3869" /></g><g
           id="g3871"
           transform="translate(40.208,198.4923)"><path
             d="m 0,0 -5.667,24.204 c -15.928,68.021 -0.169,138.428 43.234,193.169 43.404,54.74 108.365,86.136 178.225,86.136 69.86,0 134.821,-31.396 178.225,-86.137 43.403,-54.74 59.162,-125.147 43.234,-193.168 L 431.584,0"
             style="fill:none;stroke:#000000;stroke-width:20;stroke-linecap:round;stroke-linejoin:round;stroke-miterlimit:10;stroke-dasharray:none;stroke-opacity:1"
             id="path3873" /></g><g
           id="g3875"
           transform="translate(274.6877,248.2845)"><path
             d="m 0,0 v 0 c 14.945,0 27.06,-12.115 27.06,-27.06 v -0.239 c 0,-22.453 -18.201,-40.655 -40.654,-40.655 v 0 c -28.079,0 -50.842,22.763 -50.842,50.842 v 1.268 c 0,16.105 7.63,31.257 20.568,40.846 l 42.197,31.275 c 15.874,11.765 25.235,30.355 25.235,50.114 v 0 c 0,9.476 -7.682,17.159 -17.159,17.159 v 0 c -9.477,0 -17.16,-7.683 -17.16,-17.159 V -90.783 c 0,-14.824 -12.017,-26.841 -26.84,-26.841 v 0 c -14.824,0 -26.841,12.017 -26.841,26.841 v 0.745"
             style="fill:none;stroke:#000000;stroke-width:20;stroke-linecap:round;stroke-linejoin:round;stroke-miterlimit:10;stroke-dasharray:none;stroke-opacity:1"
             id="path3877" /></g><g
           id="g3879"
           transform="translate(300.6732,456.6718)"><path
             d="m 0,0 c 40.033,-9.738 75.918,-32.502 102.208,-65.659 35.771,-45.113 48.758,-103.139 35.632,-159.197 l -5.667,-24.204"
             style="fill:none;stroke:#000000;stroke-width:20;stroke-linecap:round;stroke-linejoin:round;stroke-miterlimit:10;stroke-dasharray:none;stroke-opacity:1"
             id="path3881" /></g><g
           id="g3883"
           transform="translate(79.1543,207.6115)"><path
             d="m 0,0 -5.667,24.204 c -13.126,56.059 -0.139,114.083 35.631,159.197 26.287,33.154 62.168,55.917 102.196,65.656"
             style="fill:none;stroke:#000000;stroke-width:20;stroke-linecap:round;stroke-linejoin:round;stroke-miterlimit:10;stroke-dasharray:none;stroke-opacity:1"
             id="path3885" /></g><g
           id="g3887"
           transform="translate(256.0005,462.0011)"><path
             d="M 0,0 V 0"
             style="fill:none;stroke:#000000;stroke-width:20;stroke-linecap:round;stroke-linejoin:round;stroke-miterlimit:10;stroke-dasharray:none;stroke-opacity:1"
             id="path3889" /></g></g></g></g></svg>
