<?xml version="1.0" encoding="UTF-8"?>
<svg xmlns="http://www.w3.org/2000/svg" xmlns:xlink="http://www.w3.org/1999/xlink" version="1.1" id="Capa_1" x="0px" y="0px" viewBox="0 0 512 512" style="enable-background:new 0 0 512 512;" xml:space="preserve" width="512" height="512">
<g>
	<path style="fill:none;stroke:#000000;stroke-width:15;stroke-linecap:round;stroke-linejoin:round;stroke-miterlimit:10;" d="&#10;&#9;&#9;M490.892,332.131l-26.04,97.184c-2.144,8.002-11.355,16.429-19.931,16.429h-15.529c0,0,14.362-53.601,41.015-153.071&#10;&#9;&#9;S397.9,96.256,256,96.256S14.941,193.203,41.593,292.673s41.015,153.071,41.015,153.071H67.08c-8.577,0-17.787-8.427-19.931-16.429&#10;&#9;&#9;L12.616,300.438C-8.82,220.439,38.802,138.888,123.746,96.331"/>
	<path style="fill:none;stroke:#000000;stroke-width:15;stroke-linecap:round;stroke-linejoin:round;stroke-miterlimit:10;" d="&#10;&#9;&#9;M152.552,83.952C183.621,72.664,218.503,66.256,256,66.256c161.383,0,274.325,118.708,243.384,234.182"/>
	<path style="fill:none;stroke:#000000;stroke-width:15;stroke-linecap:round;stroke-linejoin:round;stroke-miterlimit:10;" d="&#10;&#9;&#9;M142.951,367.115l10.95,40.864c5.105,19.054-9.252,37.765-28.978,37.765H82.609L41.593,292.673l36.645-21.157&#10;&#9;&#9;c17.083-9.863,38.872-0.837,43.978,18.216l12.334,46.03"/>
	
		<line style="fill:none;stroke:#000000;stroke-width:15;stroke-linecap:round;stroke-linejoin:round;stroke-miterlimit:10;" x1="112.609" y1="445.744" x2="67.574" y2="277.673"/>
	<path style="fill:none;stroke:#000000;stroke-width:15;stroke-linecap:round;stroke-linejoin:round;stroke-miterlimit:10;" d="&#10;&#9;&#9;M429.391,445.744l41.015-153.071l-36.645-21.157c-17.083-9.863-38.872-0.837-43.978,18.216L358.099,407.98&#10;&#9;&#9;c-5.105,19.054,9.252,37.765,28.978,37.765H429.391z"/>
	<path style="fill:none;stroke:#000000;stroke-width:15;stroke-linecap:round;stroke-linejoin:round;stroke-miterlimit:10;" d="&#10;&#9;&#9;M230.126,320.742c-19.507,3.702-30.9,15.348-30.9,30.556c0,15.208,15.813,27.483,35.32,23.781s35.32-19.572,35.32-48.974&#10;&#9;&#9;C269.866,326.105,249.632,317.04,230.126,320.742z"/>
	
		<polyline style="fill:none;stroke:#000000;stroke-width:15;stroke-linecap:round;stroke-linejoin:round;stroke-miterlimit:10;" points="&#10;&#9;&#9;269.866,326.105 269.866,197.479 311.298,219.763 &#9;"/>
	
		<line style="fill:none;stroke:#000000;stroke-width:15;stroke-linecap:round;stroke-linejoin:round;stroke-miterlimit:10;" x1="399.391" y1="445.744" x2="444.426" y2="277.673"/>
</g>















</svg>
