<svg viewBox="0 0 512 512" xmlns="http://www.w3.org/2000/svg"><g><g id="Layer_1"><g fill="rgb(0,0,0)"><path d="m181.904 411.16h-136.734c-14.753 0-26.757-12.024-26.757-26.803v-276.428c0-14.779 12.003-26.803 26.757-26.803h62.017v33.594c0 5.085 4.121 9.207 9.207 9.207s9.207-4.122 9.207-9.207v-33.594h183.987v33.594c0 5.085 4.121 9.207 9.207 9.207s9.207-4.122 9.207-9.207v-33.594h63.997c14.753 0 26.757 12.024 26.757 26.803v48.26c0 5.085 4.121 9.207 9.207 9.207s9.207-4.122 9.207-9.207v-48.26c0-24.932-20.264-45.216-45.17-45.216h-63.997v-33.593c0-5.085-4.121-9.207-9.207-9.207s-9.207 4.122-9.207 9.207v33.593h-183.989v-33.593c0-5.085-4.121-9.207-9.207-9.207s-9.207 4.122-9.207 9.207v33.593h-62.017c-24.905 0-45.169 20.284-45.169 45.216v276.428c0 24.932 20.264 45.216 45.17 45.216h136.734c5.086 0 9.207-4.122 9.207-9.207s-4.121-9.207-9.207-9.207z"/><path d="m353.152 174.391c-87.59 0-158.848 71.259-158.848 158.848s71.258 158.847 158.848 158.847 158.848-71.258 158.848-158.847-71.258-158.848-158.848-158.848zm0 299.282c-77.435 0-140.435-62.999-140.435-140.434s63-140.435 140.435-140.435 140.435 62.999 140.435 140.435-63 140.434-140.435 140.434z"/><path d="m416.841 356.695-54.483-28.987v-85.873c0-5.085-4.121-9.207-9.207-9.207s-9.207 4.122-9.207 9.207v91.403c0 3.404 1.877 6.529 4.882 8.128l59.365 31.585c1.379.732 2.858 1.08 4.317 1.08 3.295 0 6.481-1.773 8.136-4.884 2.389-4.489.685-10.064-3.803-12.453z"/></g></g></g></svg>